<svg width="96" height="96" viewBox="0 0 96 96" fill="none" xmlns="http://www.w3.org/2000/svg">
<path fill-rule="evenodd" clip-rule="evenodd" d="M12 24C12 22.3431 13.3431 21 15 21H81C82.6569 21 84 22.3431 84 24C84 25.6569 82.6569 27 81 27H15C13.3431 27 12 25.6569 12 24Z" fill="white"/>
<path fill-rule="evenodd" clip-rule="evenodd" d="M12 48C12 46.3431 13.3431 45 15 45H81C82.6569 45 84 46.3431 84 48C84 49.6569 82.6569 51 81 51H15C13.3431 51 12 49.6569 12 48Z" fill="white"/>
<path fill-rule="evenodd" clip-rule="evenodd" d="M12 72C12 70.3431 13.3431 69 15 69H81C82.6569 69 84 70.3431 84 72C84 73.6569 82.6569 75 81 75H15C13.3431 75 12 73.6569 12 72Z" fill="white"/>
</svg>
