<svg xmlns="http://www.w3.org/2000/svg" viewBox="0 0 196.99 376.92"><title>資產 47</title><g id="圖層_2" data-name="圖層 2"><g id="圖層_1-2" data-name="圖層 1"><path d="M158.28,26.22c-2.34,5.59-4.68,11-7.05,16.43S146.47,53.54,144,59s-4.86,10.84-7.67,16.11a20.71,20.71,0,0,1-1.2,1.94c-.2.29-.42.57-.6.88l-.54,1c-.71,1.29-1.36,2.63-2,4-1.29,2.67-2.56,5.36-3.91,8s-2.76,5.29-4.32,7.83a45.54,45.54,0,0,1-5.27,7.28,18.7,18.7,0,0,1-1.6,1.61c-.28.25-.54.53-.84.77l-.94.67-1.8,1.27a18.09,18.09,0,0,0-1.62,1.42,61.77,61.77,0,0,0-5.56,6.85c-3.5,4.77-7.09,9.69-11.94,13.37a25.18,25.18,0,0,1-8.06,4.18,24.52,24.52,0,0,1-9.05.94c-.75-.07-1.51-.11-2.26-.25a14,14,0,0,1-2.28-.46,9,9,0,0,1-4-2.55,18,18,0,0,1-3.92-8.3,37.73,37.73,0,0,1-.73-9,61.2,61.2,0,0,1,1-9,157.44,157.44,0,0,1,4.42-17.35C71,84.39,73,78.76,74.92,73.15s4-11.21,5.86-16.82c.46-1.4,1-2.81,1.35-4.2L82.7,50c.16-.71.29-1.43.43-2.14.57-2.87.89-5.8,1.19-8.73a304.23,304.23,0,0,0,.54-35.48v-.2l0-.13a5.6,5.6,0,0,1,1-1.72A4.46,4.46,0,0,1,87.51.4a4.53,4.53,0,0,1,2-.4,7.14,7.14,0,0,1,1.86.37A16.35,16.35,0,0,1,93,1a5.5,5.5,0,0,0,.63.29,5.93,5.93,0,0,0,.66.13c1,.13,2.14.22,3.22.32,4.32.47,8.64.52,13,.91a29.13,29.13,0,0,1,6.59,1.25,11,11,0,0,1,3.1,1.59,5.35,5.35,0,0,1,.68.58l.61.6a10.41,10.41,0,0,0,1.12,1.08,17.79,17.79,0,0,0,5.49,3.06,44.29,44.29,0,0,0,6.24,1.63l-.29,0a13.39,13.39,0,0,1,3.77-.78,4.45,4.45,0,0,1,2,.35,2.45,2.45,0,0,1,.86.67c.22.24.42.49.61.73a34.76,34.76,0,0,0,2.31,2.84,5,5,0,0,0,3,1.67,13.19,13.19,0,0,0,1.8.11,5.45,5.45,0,0,1,1.92.28,2.08,2.08,0,0,1,.83.67c.2.31.3.57.45.82a4.92,4.92,0,0,0,1.18,1.32c1,.77,1.91,1.57,2.79,2.44Zm-.2,0-2.69-2.45a35.81,35.81,0,0,0-2.85-2.34,5.43,5.43,0,0,1-1.31-1.39c-.18-.27-.32-.58-.46-.78a1.58,1.58,0,0,0-.62-.46c-1-.36-2.34-.06-3.61-.25a5.24,5.24,0,0,1-1.87-.59,7.92,7.92,0,0,1-1.55-1.18c-.91-.89-1.67-1.9-2.45-2.82a4.06,4.06,0,0,0-1.18-1.12,3.4,3.4,0,0,0-1.59-.22,12.2,12.2,0,0,0-3.43.79l-.14.05-.15,0a45,45,0,0,1-6.44-1.54,19,19,0,0,1-5.94-3.16,12.55,12.55,0,0,1-1.26-1.16c-.21-.22-.39-.37-.57-.53a2.85,2.85,0,0,0-.57-.47,9.83,9.83,0,0,0-2.72-1.33,30.66,30.66,0,0,0-6.27-1.07c-4.28-.32-8.7-.33-13.06-.75-1.09-.09-2.17-.16-3.3-.29A6.4,6.4,0,0,1,93.11,3a5.22,5.22,0,0,1-.87-.37,12.07,12.07,0,0,0-1.43-.53,3.28,3.28,0,0,0-2.52,0A3.3,3.3,0,0,0,86.7,3.93l0-.34q.47,8.94.36,17.87c-.06,6-.26,11.92-.8,17.88-.3,3-.63,6-1.22,8.92-.15.75-.28,1.49-.45,2.23l-.6,2.2c-.41,1.47-.9,2.86-1.37,4.28-1.92,5.64-4,11.21-6,16.8S72.69,85,70.91,90.6a150.84,150.84,0,0,0-4.51,17.12,58.49,58.49,0,0,0-1,8.73,36,36,0,0,0,.64,8.69,16.56,16.56,0,0,0,3.52,7.66A7.65,7.65,0,0,0,73,135a12.74,12.74,0,0,0,2.08.43c.71.14,1.44.18,2.16.25a23.18,23.18,0,0,0,16.28-4.76c4.69-3.5,8.25-8.3,11.79-13a61.33,61.33,0,0,1,5.71-6.94,19.39,19.39,0,0,1,1.73-1.5l1.84-1.28.88-.62c.29-.22.54-.49.81-.73a17.21,17.21,0,0,0,1.55-1.53A44.58,44.58,0,0,0,123,98.18c1.56-2.5,3-5.1,4.35-7.73s2.66-5.3,4-8c.66-1.33,1.32-2.66,2.05-4l.57-1c.19-.32.43-.63.65-1a18.38,18.38,0,0,0,1.16-1.84c2.82-5.19,5.28-10.62,7.78-16C148.52,48,153.34,37,158.08,26.26Z"/><path d="M114,109.06c4.19-5,6.53-11.2,8-17.47a97.25,97.25,0,0,0,2.2-19.25c.1-3.23,0-6.46,0-9.72s.19-6.49.35-9.74c.32-6.48.74-13,1.2-19.42l0-.41.41,0c4.64-.47,9.28-.8,13.93-1.05l-.31.11a19.72,19.72,0,0,1,8.6-3.64,22.22,22.22,0,0,1,4.69.07,26.75,26.75,0,0,1,4.58.85A17.13,17.13,0,0,1,162,31.18a12.94,12.94,0,0,1,1.91,1.47,21.55,21.55,0,0,1,1.56,1.73,32.55,32.55,0,0,0,7,5.45c1.28.78,2.64,1.53,3.92,2.38s2.55,1.7,3.8,2.55A42.42,42.42,0,0,0,184,47.09a13.65,13.65,0,0,0,2,.88,9.4,9.4,0,0,0,2.06.41c.72.06,1.45.07,2.21.06a9.52,9.52,0,0,1,2.51.2,1.9,1.9,0,0,1,.8.48,1.57,1.57,0,0,1,.44.93,2.18,2.18,0,0,1,0,.73l-.05.6a6,6,0,0,1-.18,1.2,9.21,9.21,0,0,1-.28,1.18,32.21,32.21,0,0,1-4.4,8.24c-1.7,2.53-3.41,5-5,7.6s-3.05,5.21-4.41,7.9c-2.62,5.42-5.11,11-8,16.44-1.42,2.71-2.88,5.4-4.46,8-.77,1.33-1.62,2.61-2.44,3.91s-1.71,2.56-2.67,3.77a46.86,46.86,0,0,1-6.19,7,22.6,22.6,0,0,1-8.05,5l.33-.18a67.53,67.53,0,0,1-8.21,5.45,63.76,63.76,0,0,1-8.87,4.22,47.37,47.37,0,0,1-9.5,2.59c-1.65.27-3.23.43-4.82.65s-3.16.49-4.73.82c-3.13.62-6.24,1.59-9.5,2.09a49.26,49.26,0,0,1-9.78.34C86.39,137.14,80,136.5,73.52,136v-.2c6.46.3,12.93.7,19.37.92a49.18,49.18,0,0,0,9.56-.57c3.13-.55,6.19-1.59,9.39-2.31,1.58-.37,3.19-.68,4.8-.95s3.24-.45,4.78-.73a45.83,45.83,0,0,0,9.14-2.62A67.1,67.1,0,0,0,147,119.9l.16-.12.17,0a21.05,21.05,0,0,0,7.3-4.63,45.41,45.41,0,0,0,5.9-6.68A120.08,120.08,0,0,0,170,93q2.11-4,4.11-8.12c1.33-2.72,2.6-5.47,4-8.23s2.93-5.39,4.57-8,3.39-5.11,5.1-7.61,3.42-5,4.26-7.75a7.53,7.53,0,0,0,.26-1,5.33,5.33,0,0,0,.16-1.05l.05-.53a1.6,1.6,0,0,0,0-.41c0-.12,0-.06-.18-.17a8.78,8.78,0,0,0-2-.13c-.76,0-1.55,0-2.35-.09a11.27,11.27,0,0,1-2.4-.5,15.62,15.62,0,0,1-2.19-1A41.4,41.4,0,0,1,179.39,46c-1.26-.86-2.5-1.73-3.76-2.56s-2.55-1.57-3.87-2.39a33.18,33.18,0,0,1-7.29-5.75A21.05,21.05,0,0,0,163,33.59a10.88,10.88,0,0,0-1.69-1.33,16.17,16.17,0,0,0-4-1.73,25.75,25.75,0,0,0-4.37-.84,20.54,20.54,0,0,0-4.42-.11,18.76,18.76,0,0,0-8.07,3.35l-.15.11h-.16c-4.63.21-9.27.5-13.88.94l.44-.46c-.52,6.46-1,12.93-1.39,19.4-.19,3.23-.36,6.47-.45,9.7s0,6.48-.1,9.73a97.44,97.44,0,0,1-2.4,19.32c-1.51,6.29-3.93,12.54-8.2,17.51Z"/><path d="M9.71,52.3a4.18,4.18,0,0,1,.76-2A7.8,7.8,0,0,1,12,48.65a24.08,24.08,0,0,1,3.72-2.36,58.59,58.59,0,0,0,7.51-4.44,16.67,16.67,0,0,0,3.05-3.06c.93-1.13,1.8-2.3,2.71-3.45a15.41,15.41,0,0,1,1.47-1.67,4.55,4.55,0,0,1,2-1.18,5.21,5.21,0,0,1,2.29,0,4.72,4.72,0,0,0,2.05,0c1.33-.33,2.33-1.5,3.71-2.18a5.77,5.77,0,0,1,2.23-.59,10.56,10.56,0,0,1,2.26.19c2.84.5,5.77.45,8.71.84a21.84,21.84,0,0,1,4.34,1,32.88,32.88,0,0,1,4,1.86,37,37,0,0,0,8.1,3l.44.1-.06.44c-1,8.22-1.73,16.48-2.15,24.74a144.49,144.49,0,0,0,.39,24.71l.52,3,.8,2.91c.31,1,.65,2,.92,3s.51,2,.73,3.07a110.93,110.93,0,0,1,1.76,12.39,244.37,244.37,0,0,1,1,24.95v1l-1-.14a69,69,0,0,1-6.79-1.31c-2.23-.53-4.44-1.18-6.62-1.92a60.17,60.17,0,0,1-12.51-5.87c-.48-.32-1-.6-1.46-.94l-1.4-1c-.46-.35-1-.67-1.38-1.06l-1.31-1.17A26.29,26.29,0,0,1,39.47,121c-.82-.85-1.51-1.75-2.23-2.64-2.87-3.55-5.57-7.25-8.08-11s-4.89-7.7-7.33-11.49-5-7.46-8.69-10c-.9-.65-1.85-1.28-2.78-2a13.08,13.08,0,0,1-2.5-2.54,22.83,22.83,0,0,1-3.1-6.23,58.33,58.33,0,0,1-1.94-6.58,32.62,32.62,0,0,1-.58-3.4,14.17,14.17,0,0,1-.05-3.51v-.07l.06-.07Zm.19.07L2.78,61.83l.06-.14A14,14,0,0,0,3,65a31.05,31.05,0,0,0,.7,3.29A56.45,56.45,0,0,0,5.8,74.67a21.59,21.59,0,0,0,3.08,5.82c1.3,1.75,3.19,2.85,5.11,4.14a24.79,24.79,0,0,1,5.17,4.69,64,64,0,0,1,4.09,5.56c2.53,3.79,4.92,7.63,7.49,11.35s5.24,7.35,8.08,10.85c.71.86,1.41,1.77,2.17,2.54A24.51,24.51,0,0,0,43.33,122L44.56,123c.41.37.88.67,1.32,1l1.33,1c.45.32.93.6,1.4.91a58.15,58.15,0,0,0,12,5.74,74.66,74.66,0,0,0,13,3.27l-1,.89a243.36,243.36,0,0,0-.69-24.75,111.07,111.07,0,0,0-1.63-12.24c-.21-1-.46-2-.69-3s-.57-2-.86-2.93l-.83-3.09-.5-3.12c-1-8.34-.68-16.68-.21-25S68.51,45.2,69.57,37l.39.55a37.88,37.88,0,0,1-8.3-3.14,29.65,29.65,0,0,0-3.91-1.87,21,21,0,0,0-4.17-1c-2.85-.41-5.81-.39-8.72-.94a10.18,10.18,0,0,0-2.1-.21,5.32,5.32,0,0,0-2,.51c-1.25.57-2.28,1.78-3.84,2.18a5.35,5.35,0,0,1-2.29,0,4.77,4.77,0,0,0-2.06,0c-1.34.34-2.29,1.54-3.2,2.64s-1.81,2.29-2.75,3.42a16.47,16.47,0,0,1-3.15,3.09,57.72,57.72,0,0,1-7.61,4.39,25.39,25.39,0,0,0-3.7,2.29A5.23,5.23,0,0,0,9.9,52.37Z"/><path d="M25.52,40a20.29,20.29,0,0,1-.37-5.87,4.45,4.45,0,0,1,1.14-2.74,2.6,2.6,0,0,1,1.39-.59,7.11,7.11,0,0,0,1.38-.42c1.85-.67,2.62-2.68,4-4a8.48,8.48,0,0,1,5-3,6.94,6.94,0,0,1,1.51,0l1.46.2a19.87,19.87,0,0,0,2.89,0,43.09,43.09,0,0,0,5.77-.71c1-.18,1.91-.38,2.84-.63.46-.13.92-.28,1.35-.45a2.43,2.43,0,0,0,1-.8c.6-.71,1.08-1.58,1.74-2.36a3.65,3.65,0,0,1,2.72-1.46,22.76,22.76,0,0,0,5.73-.75c1.91-.4,3.8-.89,5.75-1.23A6.1,6.1,0,0,1,72.53,15a2.26,2.26,0,0,1,.78.3,3.71,3.71,0,0,0,.63.24,11.59,11.59,0,0,0,2.79.36c1.93.07,3.88,0,5.82-.12s3.9-.23,5.81-.46,3.84-.57,5.74-1,3.78-.91,5.74-1.27A8.11,8.11,0,0,1,103,13a2.76,2.76,0,0,1,1.51.92,4,4,0,0,1,.74,1.52l0,.1v.12c-1.73,11-3.21,22-4.21,33.06-.48,5.53-.87,11.07-.9,16.6l.08,4.13c.13,1.36.17,2.75.38,4.08l.36,2,.41,2.09c.06.35.15.7.19,1l.11,1.07c0,.71.18,1.42.16,2.13a59.32,59.32,0,0,1-2.29,16.7c-1.42,5.42-3.19,10.72-4.86,16-.82,2.65-1.66,5.3-2.37,8-.18.66-.39,1.34-.62,2s-.41,1.38-.7,2l-.91,2c-.35.64-.76,1.26-1.14,1.88A14.93,14.93,0,0,1,82.1,136a15.51,15.51,0,0,1-4.32,1.05,15.83,15.83,0,0,1-4.49-.18l-.25,0-.21-.2a113.41,113.41,0,0,1-9.34-10,130,130,0,0,1-8.22-10.93c-2.6-3.75-4.89-7.7-7.11-11.69-1-2-2.1-4-3.06-6.11l-1.4-3.13L43,93.16l-.62-1.6c-.8-2.13-1.69-4.24-2.32-6.43s-1.37-4.36-2-6.54l-3.63-13.1c-1.22-4.36-2.38-8.74-3.68-13.07a59.48,59.48,0,0,0-2.29-6.36c-.91-2.06-2-4.07-3-6.09l.18-.09c1.1,2,2.21,4,3.2,6a60.66,60.66,0,0,1,2.53,6.34c1.46,4.3,2.77,8.64,4.07,13l3.92,13c.63,2.18,1.36,4.31,2.08,6.44s1.55,4.21,2.38,6.31l.62,1.56.71,1.53,1.42,3.06c1,2,2.06,4,3.09,6,2.24,3.9,4.55,7.76,7.16,11.43,1.26,1.86,2.62,3.65,4,5.47s2.76,3.55,4.22,5.26a118.72,118.72,0,0,0,9.16,9.83l-.46-.24a13.83,13.83,0,0,0,3.82.16,13.47,13.47,0,0,0,3.77-.89,12.89,12.89,0,0,0,5.92-4.82c.34-.56.72-1.1,1-1.67l.84-1.8c.28-.61.45-1.27.67-1.89s.43-1.27.62-2c.75-2.7,1.61-5.35,2.47-8,1.72-5.29,3.53-10.55,5-15.88a57.27,57.27,0,0,0,2.38-16.22c0-.68-.1-1.35-.14-2l-.1-1c0-.33-.12-.66-.18-1l-.37-2-.37-2.12c-.21-1.41-.24-2.81-.37-4.22l0-4.21c.07-5.6.5-11.16,1-16.71,1.08-11.1,2.64-22.13,4.45-33.12v.22A2,2,0,0,0,102.71,14a7.29,7.29,0,0,0-2.7.08c-1.88.34-3.79.83-5.71,1.22s-3.87.72-5.83.94-3.92.31-5.87.41-3.92.16-5.9.07a12.56,12.56,0,0,1-3-.43A4.62,4.62,0,0,1,73,16c-.22-.11-.47-.26-.56-.24a5.85,5.85,0,0,0-1.34.1c-1.9.31-3.8.78-5.72,1.17-1,.2-1.92.39-2.9.53a14.57,14.57,0,0,1-1.48.17,14.75,14.75,0,0,1-1.48,0A3,3,0,0,0,57.22,19c-.62.71-1.1,1.56-1.76,2.34a3.13,3.13,0,0,1-1.27.94,13.18,13.18,0,0,1-1.43.46c-1,.25-1.92.45-2.89.62A45.93,45.93,0,0,1,44,24a21.05,21.05,0,0,1-3-.08l-1.44-.22a6.64,6.64,0,0,0-1.41,0,8.07,8.07,0,0,0-4.83,2.83,22.44,22.44,0,0,0-1.86,2.25,5.48,5.48,0,0,1-2.33,1.84,7.51,7.51,0,0,1-1.43.42,2.34,2.34,0,0,0-1.27.51,4.15,4.15,0,0,0-1.07,2.56,19.85,19.85,0,0,0,.31,5.8Z"/><path d="M184.17,68a3.47,3.47,0,0,0,2,1.63,16,16,0,0,0,2.58.77A48.16,48.16,0,0,1,194,71.71a5.19,5.19,0,0,1,2.36,1.5,2.77,2.77,0,0,1,.59,1.33,4.08,4.08,0,0,1-.11,1.44,8.61,8.61,0,0,1-1.2,2.52A18.84,18.84,0,0,1,194,80.7a27.14,27.14,0,0,0-3,4.43c-.9,1.56-1.75,3.15-2.53,4.77a61,61,0,0,0-3.91,10c-.53,1.71-.82,3.48-1.38,5.27a16.81,16.81,0,0,1-2.42,5,19.71,19.71,0,0,1-3.95,4c-1.45,1.13-2.93,2.16-4.32,3.28s-2.65,2.34-4,3.62-2.67,2.47-4,3.68c-2.74,2.39-5.57,4.69-8.51,6.85-1.47,1.08-3,2.13-4.54,3.1a28.37,28.37,0,0,1-5,2.54,59.89,59.89,0,0,1-10.63,3,36.25,36.25,0,0,1-5.56.62c-.91,0-2.16-.16-2.72-.16-.82,0-1.69.12-2.57.23-3.52.48-7.07,1.22-10.62,1.92s-7.12,1.37-10.77,1.84a16.72,16.72,0,0,1-2.86.14,18.93,18.93,0,0,1-2.81-.47c-1.8-.4-3.55-.91-5.29-1.45-7-2.15-13.76-4.62-20.51-7.27l.06-.19c3.47,1.05,6.93,2.14,10.4,3.15s6.94,2.06,10.43,3c1.75.45,3.5.88,5.24,1.24a18.67,18.67,0,0,0,2.55.37,15.11,15.11,0,0,0,2.56-.2c3.52-.54,7.06-1.34,10.6-2.1s7.1-1.48,10.75-2a23.46,23.46,0,0,1,2.84-.24c1.25.07,1.79.22,2.7.2a36.38,36.38,0,0,0,5.24-.54,58.92,58.92,0,0,0,10.33-2.67,41.17,41.17,0,0,0,9.21-5.27c2.93-2.08,5.76-4.32,8.51-6.65q2.06-1.76,4-3.58c1.3-1.22,2.66-2.52,4.11-3.64,2.88-2.28,6.08-4,8.15-6.88a16.08,16.08,0,0,0,2.33-4.69c.54-1.66.88-3.47,1.44-5.22a62.89,62.89,0,0,1,4.15-10.12c.82-1.62,1.71-3.21,2.65-4.77a27.82,27.82,0,0,1,3.18-4.46,12.92,12.92,0,0,0,2.82-4.45,3.58,3.58,0,0,0,.13-1.25,2.3,2.3,0,0,0-.48-1.12,4.93,4.93,0,0,0-2.15-1.41,47,47,0,0,0-5.21-1.41,15.84,15.84,0,0,1-2.61-.83A3.66,3.66,0,0,1,184,68.05Z"/><path d="M96.32,130.19a18.14,18.14,0,0,0-7.61,2.55,17.43,17.43,0,0,0-5.55,5.75,27.57,27.57,0,0,0-3,7.47,45.77,45.77,0,0,0-1.24,8,70.59,70.59,0,0,0,.87,16.16c.43,2.68.83,5.36,1.35,8l.75,4,.82,4c4.42,21.26,10.9,42,15.93,63.21q1,4,1.83,8c.61,2.66,1.12,5.33,1.66,8s1,5.37,1.45,8.05l.59,4.06c.2,1.35.4,2.7.52,4.06a170.47,170.47,0,0,1,.59,32.73,181.2,181.2,0,0,1-5.62,32.23l-1.15,3.92-.57,2-.65,1.94L96,358.14c-.45,1.28-1,2.55-1.42,3.83-1.91,5.1-4.19,10-6.55,14.95l-.18-.08c2.14-5,4.19-10,5.87-15.18s3.25-10.34,4.59-15.58a188.73,188.73,0,0,0,5-32c.2-2.7.29-5.4.4-8.1l0-4,0-2,0-2-.1-4.05c0-1.35-.14-2.7-.21-4.05-.12-2.7-.4-5.38-.67-8.07-.1-1.35-.29-2.69-.47-4l-.53-4c-.45-2.67-.85-5.34-1.35-8s-1-5.32-1.56-8-1.12-5.31-1.73-8c-4.81-21.16-11.11-42-15.35-63.38l-.78-4-.7-4c-.49-2.67-.86-5.37-1.25-8.06a71.39,71.39,0,0,1-.68-16.33,46,46,0,0,1,1.35-8.07,27.76,27.76,0,0,1,3.17-7.56,17.74,17.74,0,0,1,5.74-5.79A18.3,18.3,0,0,1,96.3,130Z"/><path d="M55.72,200.44a6.34,6.34,0,0,0,3.63-2.07,5.51,5.51,0,0,0,1.24-4,11.28,11.28,0,0,0-1.12-4.1c-.56-1.31-1.43-2.45-2.12-3.72a29,29,0,0,1-2.93-8.09c-.59-2.82-.81-5.69-1.14-8.52a36.49,36.49,0,0,0-1.66-8.34,15.62,15.62,0,0,0-4.69-6.88,16.84,16.84,0,0,0-7.49-3.65,14.81,14.81,0,0,0-8.24.56,12.15,12.15,0,0,0-3.54,2.13A13.77,13.77,0,0,0,25,157a14.79,14.79,0,0,0-2.12,7.94A20.68,20.68,0,0,0,24.77,173a38.25,38.25,0,0,0,4.3,7.29,51.49,51.49,0,0,0,5.54,6.46A64.68,64.68,0,0,0,41,192.44c1.14.87,2.3,1.7,3.47,2.51s2.37,1.64,3.5,2.5a22.33,22.33,0,0,0,3.62,2.26,9.16,9.16,0,0,0,2,.68A6.56,6.56,0,0,0,55.72,200.44Zm0,.1a7.11,7.11,0,0,1-2.16,0,9.34,9.34,0,0,1-2.06-.66,21.9,21.9,0,0,1-3.69-2.22c-1.17-.84-2.36-1.61-3.58-2.37s-2.39-1.58-3.56-2.41a57.23,57.23,0,0,1-12.43-11.94,39.87,39.87,0,0,1-4.4-7.49,21.61,21.61,0,0,1-2-8.5,15.81,15.81,0,0,1,2.35-8.42,14.82,14.82,0,0,1,2.86-3.36,12.91,12.91,0,0,1,3.8-2.24,15.57,15.57,0,0,1,8.68-.52,17.5,17.5,0,0,1,7.76,3.86,16.32,16.32,0,0,1,4.81,7.18,36.93,36.93,0,0,1,1.62,8.48c.28,2.86.45,5.71,1,8.51a28.7,28.7,0,0,0,2.76,8.06,42.85,42.85,0,0,1,2.08,3.76,11.54,11.54,0,0,1,1.08,4.15,5.6,5.6,0,0,1-1.27,4A6.41,6.41,0,0,1,55.74,200.54Z"/><path d="M31.78,163a15.07,15.07,0,0,1,6.07,1.15,10.7,10.7,0,0,1,4.66,4.1,19.71,19.71,0,0,1,2.33,5.8,58.14,58.14,0,0,1,1.1,6.12,106.33,106.33,0,0,0,2,12.12,13.1,13.1,0,0,0,2.63,5.32,9,9,0,0,0,5.19,2.84v.1l-1.55-.21c-.5-.16-1-.28-1.5-.47A8.78,8.78,0,0,1,50,198.08,13.31,13.31,0,0,1,47,192.56c-1.2-4.06-1.33-8.23-1.8-12.3a58.07,58.07,0,0,0-.94-6.07,19.06,19.06,0,0,0-2.13-5.69,10.34,10.34,0,0,0-4.35-4.09,14.92,14.92,0,0,0-5.95-1.32Z"/><path d="M44.62,184.8c1.15,1.32,2.23,2.71,3.44,4s2.7,2.23,4,3.39a14.57,14.57,0,0,1,3.46,4,5.82,5.82,0,0,1,.73,2.55,5.45,5.45,0,0,1-.69,2.56,5.88,5.88,0,0,1-1.71,2,10.35,10.35,0,0,1-2.35,1.24,22.75,22.75,0,0,1-5.14,1.21,64,64,0,0,1-10.54.38,154.85,154.85,0,0,1-20.92-2.47c-1.73-.33-3.45-.67-5.17-1.06a44.45,44.45,0,0,1-5.11-1.39A15,15,0,0,1,2.19,200a4.76,4.76,0,0,1-2-2,2.27,2.27,0,0,1-.08-1.54,3.3,3.3,0,0,1,.75-1.27,7.5,7.5,0,0,1,2.25-1.61,9.82,9.82,0,0,1,2.6-.82c.85-.18,1.7-.36,2.52-.61,1.61-.47,3.23-1.28,3.78-2.75a6.47,6.47,0,0,0-.73-4.71,28.17,28.17,0,0,1-1.85-5A37,37,0,0,1,8,169.19a15.5,15.5,0,0,1,1-5.31,6.64,6.64,0,0,1,3.81-4,9.41,9.41,0,0,1,5.46,0,26,26,0,0,1,5,1.88,32.83,32.83,0,0,1,8.39,6.45,73.34,73.34,0,0,1,6.7,8.14C40.47,179.14,42.47,182,44.62,184.8Zm-.08.06c-4.36-5.49-8.19-11.44-13.23-16.3a32.89,32.89,0,0,0-8.39-6.08,25.28,25.28,0,0,0-4.85-1.73,8.41,8.41,0,0,0-4.9.1,5.63,5.63,0,0,0-3.23,3.4,14.37,14.37,0,0,0-.92,5,36.35,36.35,0,0,0,1.35,10.24,28,28,0,0,0,1.75,4.87,11.46,11.46,0,0,1,.88,2.59,5.41,5.41,0,0,1-.16,2.84A4.48,4.48,0,0,1,11,191.93,9.48,9.48,0,0,1,8.46,193c-.87.24-1.74.42-2.6.59a9.15,9.15,0,0,0-2.41.75,6.76,6.76,0,0,0-2,1.4,1.85,1.85,0,0,0-.54,2,4,4,0,0,0,1.68,1.64,14,14,0,0,0,2.32,1.08,43.73,43.73,0,0,0,5,1.4c1.7.4,3.41.75,5.13,1.09a153.65,153.65,0,0,0,20.82,2.61,63.06,63.06,0,0,0,10.47-.23,22.59,22.59,0,0,0,5.09-1.13,9.84,9.84,0,0,0,2.31-1.17,5.65,5.65,0,0,0,1.67-1.93,5.18,5.18,0,0,0,.67-2.46,5.48,5.48,0,0,0-.69-2.46,14.36,14.36,0,0,0-3.4-3.93c-1.31-1.17-2.73-2.21-4-3.42S45.69,186.19,44.54,184.86Z"/><path d="M62.17,214.66a37.38,37.38,0,0,1-9.6,3,22.5,22.5,0,0,1-5.06.27c-1.67-.08-3.37-.43-5-.42s-2.95,1.08-4.26,2.07-2.61,2.09-3.91,3.14c-2.59,2.12-5.17,4.26-7.8,6.34l-3.41,2.72,2.68-3.44c1.79-2.29,3.66-4.52,5.52-6.75.94-1.1,1.9-2.19,2.86-3.28s2-2.16,3-3.17l.07.07c-1.83,2.25-3.56,4.57-5.33,6.88L26.66,229l-.73-.72c2.62-2.09,5.28-4.13,7.92-6.19,1.33-1,2.63-2.07,4-3.07A18.52,18.52,0,0,1,40,217.61a5.32,5.32,0,0,1,2.54-.7c1.75,0,3.36.42,5,.53a23,23,0,0,0,5-.13,37.09,37.09,0,0,0,9.6-2.74Z"/><path d="M37.51,210.07c5.69-5.21,9.54-12,14.86-17.62a34.49,34.49,0,0,1,4.31-3.88l1.18-.85c.4-.27.82-.51,1.23-.76l.62-.38.67-.32a8.06,8.06,0,0,1,1.36-.55,11,11,0,0,1,11,2.28,10,10,0,0,1,2.92,5.08c.11.49.15,1,.23,1.47a14.63,14.63,0,0,1,0,1.48A10.4,10.4,0,0,1,75.5,199a11.83,11.83,0,0,1-3,5.05c-.36.35-.76.65-1.16,1a4.93,4.93,0,0,1-1.41.66,2.39,2.39,0,0,1-.8.12,2.46,2.46,0,0,1-.81-.09,3.93,3.93,0,0,1-1.42-.7c-1.62-1.28-2.58-3-3.84-4.39a7.11,7.11,0,0,0-1-.92c-.36-.31-.71-.48-.91-.39s-.41.4-.48.8a3.26,3.26,0,0,0,0,1.28c.54,3.73,2.62,7,5,9.94l2.57,3.12L65,212c-3.28-2.42-6.63-4.8-10-7.05l-2.58-1.65a13.36,13.36,0,0,0-2.58-1.35h-.07a.3.3,0,0,0,.24-.2c0-.19,0,0,0,0v.18a4,4,0,0,0,.07.69,6.1,6.1,0,0,0,.42,1.36,11.89,11.89,0,0,0,1.57,2.52,27.35,27.35,0,0,0,4.18,4.35,52.79,52.79,0,0,1,5.06,3.51,6,6,0,0,1,1.08,1.2,1.37,1.37,0,0,1,.23.9,1,1,0,0,1-.63.72c-.55.22-1,.27-1.48.46a6.64,6.64,0,0,0-1.32.69A11.32,11.32,0,0,0,55.45,223l-.09,0A11.46,11.46,0,0,1,59,218.05a6.88,6.88,0,0,1,1.37-.79c.47-.21,1-.32,1.43-.5a.61.61,0,0,0,.35-.38.89.89,0,0,0-.19-.55,5.19,5.19,0,0,0-1-1.05A22.93,22.93,0,0,0,58.49,213c-.86-.55-1.77-1-2.65-1.62a16.57,16.57,0,0,1-2.34-2.08c-.71-.76-1.41-1.51-2.07-2.33a12.67,12.67,0,0,1-1.71-2.67,6.87,6.87,0,0,1-.51-1.55,6,6,0,0,1-.1-.84v-.31a.2.2,0,0,1,0-.08,1.16,1.16,0,0,1,0-.18.61.61,0,0,1,.57-.37,1,1,0,0,1,.31,0,7.19,7.19,0,0,1,1.53.65c.46.24.91.5,1.36.77.89.52,1.76,1.08,2.61,1.64,3.44,2.28,6.78,4.65,10.09,7.1l-.68.71a28.3,28.3,0,0,1-3.3-4.84,17,17,0,0,1-1.85-5.6,4.24,4.24,0,0,1,0-1.59,2.7,2.7,0,0,1,.31-.81,1.37,1.37,0,0,1,1.8-.56,3.49,3.49,0,0,1,.68.45,7.83,7.83,0,0,1,1.1,1c1.31,1.47,2.27,3.19,3.68,4.32a2.66,2.66,0,0,0,2.37.57,4.53,4.53,0,0,0,1.18-.56,12.56,12.56,0,0,0,1.06-.87,11.14,11.14,0,0,0,2.88-4.72,9.88,9.88,0,0,0,.44-2.75c0-.47,0-.94,0-1.4s-.11-.93-.21-1.38a9.44,9.44,0,0,0-2.69-4.8,10.46,10.46,0,0,0-10.46-2.25,7.77,7.77,0,0,0-1.31.52l-.64.3-.62.36c-.4.25-.82.48-1.22.74l-1.17.82a34.4,34.4,0,0,0-4.3,3.79c-5.35,5.49-9.29,12.28-15.05,17.45Z"/><path d="M44.85,202.05a13.12,13.12,0,0,0,1.48,6,11.63,11.63,0,0,0,3.94,4.59A13.47,13.47,0,0,0,56,214.5a30.42,30.42,0,0,0,6.19.07l0,.1a16.56,16.56,0,0,1-6.31.82,11.58,11.58,0,0,1-6-2.23,12.21,12.21,0,0,1-3.93-5,13.57,13.57,0,0,1-1.13-6.2Z"/><path d="M63.12,209.79A16.89,16.89,0,0,1,66.48,212a9.81,9.81,0,0,1,1.43,1.45,3.7,3.7,0,0,1,.31.46,1.46,1.46,0,0,1,.23.68.92.92,0,0,1,0,.29l-.08.14a1.84,1.84,0,0,1-.15.28,4,4,0,0,1-.4.42c-1.13.92-2.34,1.34-3.32,2.18a5.61,5.61,0,0,0-1.25,1.41,5.16,5.16,0,0,0-.65,1.81h-.1a5.53,5.53,0,0,1,.48-1.94,5.83,5.83,0,0,1,1.19-1.65c1-.94,2.24-1.56,3.09-2.38a1.42,1.42,0,0,0,.25-.31c0-.06,0-.11.07-.16l0-.08v0a2.28,2.28,0,0,0-.14-.22,2.61,2.61,0,0,0-.27-.33c-.41-.44-.88-.89-1.34-1.34-.92-.91-1.87-1.81-2.75-2.82Z"/><path d="M64.71,189.81a12.67,12.67,0,0,0,2.39-2.35,12.39,12.39,0,0,0,1.72-2.82,15,15,0,0,0,.88-3.12c.26-1.06.31-2.15.48-3.3l.1,0a7.7,7.7,0,0,1,.41,3.47,7.37,7.37,0,0,1-.4,1.73,14.46,14.46,0,0,1-.75,1.59,12.61,12.61,0,0,1-4.78,4.91Z"/></g></g></svg>