<svg xmlns="http://www.w3.org/2000/svg" viewBox="0 0 149.7 150.79"><defs><style>.cls-1,.cls-2,.cls-5,.cls-6,.cls-7,.cls-8{fill:none;stroke-miterlimit:10;}.cls-1,.cls-2{stroke:#666;}.cls-2{stroke-width:0.5px;}.cls-3{fill:#666;}.cls-4{fill:#405e6a;}.cls-5,.cls-6{stroke:#fff;}.cls-6{stroke-width:0.75px;}.cls-7{stroke:#ffc8a5;}.cls-8{stroke:#ff9b7d;}</style></defs><title>資產 7</title><g id="圖層_2" data-name="圖層 2"><g id="圖層_1-2" data-name="圖層 1"><path class="cls-1" d="M57.15,86a3.52,3.52,0,0,0,3.35-4.63"/><path class="cls-2" d="M60.82,82.7a3.51,3.51,0,0,0,2.45-1.23"/><path class="cls-2" d="M60.43,83.4a3.55,3.55,0,0,0,2.73.2"/><path class="cls-2" d="M59.93,84.28a3.52,3.52,0,0,0,1.68,1.24"/><path class="cls-1" d="M69.39,64.76A44.62,44.62,0,0,1,74.76,17.5C89.17-.19,118-3.76,135.91,10.8"/><path class="cls-1" d="M125.76,15.87c7.92-4.86,27.55-12.83,22.67,5a45.91,45.91,0,0,1-3.68,8.61"/><path class="cls-1" d="M74.34,18.22A29.71,29.71,0,0,1,77.6,4.54c3.18-6,9.6-4.66,13.73-.25"/><path class="cls-1" d="M57.64,77.51a10.74,10.74,0,0,1-.15-1.12C56.78,65.08,71.4,61.6,78.15,69.21c3.66,4.13,4.93,11.22.09,15a5.55,5.55,0,0,1-6.17.55,5.18,5.18,0,0,1-2.19-5,6.62,6.62,0,0,1,3.21-4.61"/><path class="cls-1" d="M62.92,77.22a8,8,0,0,1,4.84-3.57"/><path class="cls-3" d="M75.5,38.36a5.38,5.38,0,0,0,3.08,3.25,5.3,5.3,0,0,0,4.65-.44c.82-.51.06-1.81-.76-1.3a3.82,3.82,0,0,1-3.4.33A3.76,3.76,0,0,1,77,38a.78.78,0,0,0-.93-.53.75.75,0,0,0-.52.92Z"/><path class="cls-3" d="M98.43,44.28a4.65,4.65,0,0,0,7.84,3.2.75.75,0,0,0,0-1.06.76.76,0,0,0-1.06,0,3.15,3.15,0,0,1-5.28-2.14.77.77,0,0,0-.75-.75.75.75,0,0,0-.75.75Z"/><path class="cls-3" d="M85.89,46.91c2.66,0,2.67-4.14,0-4.14s-2.68,4.14,0,4.14Z"/><path class="cls-4" d="M85.14,46.08a15.72,15.72,0,0,0-.53,3.33.38.38,0,1,0,.75,0,15,15,0,0,1,.5-3.13.37.37,0,0,0-.72-.2Z"/><path class="cls-2" d="M61.52,43.77a10.76,10.76,0,0,1,9.28-.53"/><path class="cls-2" d="M62,36.75a10.75,10.75,0,0,1,8.36,4"/><path class="cls-2" d="M119.34,63.6a16.14,16.14,0,0,0-11.57-7.78"/><path class="cls-3" d="M75.51,47.18a5.52,5.52,0,0,0,9.75,2.31c.3-.38-.23-.91-.53-.53a4.77,4.77,0,0,1-8.5-2c-.1-.47-.82-.27-.72.2Z"/><path class="cls-3" d="M84.57,49.34a7.4,7.4,0,0,0,13,2.77c.3-.37-.23-.91-.53-.53a6.67,6.67,0,0,1-11.78-2.44.37.37,0,0,0-.72.2Z"/><path class="cls-5" d="M75.1,85.6c5,2.12,8,4.75,8,7.61,0,7-17.83,12.68-39.83,12.68"/><path class="cls-5" d="M12.7,101.87C6,99.6,2,96.56,2,93.21c0-7,17.84-12.67,39.84-12.67,1.4,0,4.82,0,6.19.06"/><path class="cls-5" d="M81.32,99.59a32.48,32.48,0,0,1,3.23,14.1c0,20.21-18.82,36.6-42,36.6S.5,133.9.5,113.69a32.48,32.48,0,0,1,3.23-14.1"/><circle class="cls-5" cx="40.74" cy="107.19" r="3.04"/><circle class="cls-6" cx="35.16" cy="114.8" r="1.52"/><circle class="cls-6" cx="10.82" cy="109.73" r="1.52"/><path class="cls-2" d="M108.3,53.45a11.27,11.27,0,0,1,5.38-1.26,1.37,1.37,0,0,1,1.31.87,1,1,0,0,1-1.36,1.16,1.07,1.07,0,0,1-.48-1c.2-1.62,3.25-1.52,4.4-1.41a11.87,11.87,0,0,1,5.73,2.25"/><path class="cls-7" d="M35.12,94.66A36.42,36.42,0,0,1,49.84,79.81c4.82-2.57,16.5-5.15,18,2.89.73,4-2.27,8.74-5.13,11.31-7.83,7-19.46,8.17-27.55.65"/><path class="cls-8" d="M35.12,94.66c-4.7-1.32-10.12-1.45-15-1.25a9.92,9.92,0,0,0-3.59.64,3.88,3.88,0,0,0-2.34,2.64,3.68,3.68,0,0,0,1.15,3.23,6.94,6.94,0,0,0,3.15,1.62,1.88,1.88,0,0,0,1.89-.25,1.45,1.45,0,0,0-.24-1.86,2.89,2.89,0,0,0-4,.18,4.22,4.22,0,0,0-.78,4.19c1.94,6,11.19,8.89,16,4.71a10.39,10.39,0,0,0,3.17-6.06,39.08,39.08,0,0,0,.56-7.79"/></g></g></svg>