<svg xmlns="http://www.w3.org/2000/svg" viewBox="0 0 121.96 135.03"><defs><style>.cls-1,.cls-2,.cls-3,.cls-4,.cls-5,.cls-6{fill:none;stroke-miterlimit:10;}.cls-1{stroke:#ffc8a5;}.cls-2{stroke:#ff9b7d;}.cls-3,.cls-4{stroke:#666;}.cls-4{stroke-width:0.5px;}.cls-5,.cls-6{stroke:#fff;}.cls-6{stroke-width:0.75px;}.cls-7{fill:#666;}</style></defs><title>資產 8</title><g id="圖層_2" data-name="圖層 2"><g id="圖層_1-2" data-name="圖層 1"><path class="cls-1" d="M48.27,107.49A37.26,37.26,0,0,1,63.37,92.2c4.94-2.66,16.94-5.34,18.47,2.93.76,4.12-2.32,9-5.25,11.63-8,7.27-20,8.44-28.32.73"/><path class="cls-2" d="M48.27,107.49c-4.84-1.34-10.41-1.46-15.43-1.25a10.05,10.05,0,0,0-3.69.67,4,4,0,0,0-2.4,2.71A3.81,3.81,0,0,0,28,113a7.22,7.22,0,0,0,3.23,1.65,1.92,1.92,0,0,0,2-.26,1.49,1.49,0,0,0-.26-1.91,3,3,0,0,0-4.12.19,4.37,4.37,0,0,0-.79,4.32c2,6.17,11.52,9.11,16.51,4.8a10.76,10.76,0,0,0,3.24-6.24,40.59,40.59,0,0,0,.56-8"/><path class="cls-3" d="M70.9,98.51a3.63,3.63,0,0,0,3.43-4.77"/><path class="cls-4" d="M74.66,95.14a3.61,3.61,0,0,0,2.51-1.27"/><path class="cls-4" d="M74.26,95.86a3.66,3.66,0,0,0,2.81.2"/><path class="cls-4" d="M73.75,96.77A3.6,3.6,0,0,0,75.47,98"/><path class="cls-5" d="M105.69,73.78a41.24,41.24,0,0,1,2.4,13.78c0,25.87-24,46.9-53.69,47S.56,113.67.5,87.8A41.5,41.5,0,0,1,4.6,69.74"/><circle class="cls-5" cx="95.84" cy="94" r="3.89"/><circle class="cls-6" cx="88.72" cy="103.75" r="1.95"/><circle class="cls-6" cx="10.84" cy="98.63" r="1.95"/><path class="cls-3" d="M80.37,81.16c-23.59,7.92-52.34-7.1-56-32.45a43.42,43.42,0,0,1,7-29.84C44-.33,72.25-5.17,91.11,7.62c9.36,6.35,16.28,16.69,17.91,28"/><path class="cls-3" d="M71.22,21.85c8.47-5.22,29.47-13.8,24.29,5.26a48.56,48.56,0,0,1-3.92,9.23"/><path class="cls-3" d="M24.05,48.93a31.91,31.91,0,0,1-7.92-12.82C14,29.16,19.84,25.31,26.31,25.5"/><path class="cls-3" d="M80.27,81.6c-3.35,0-5.18-3.54-5.37-6.79C74.16,62.53,88.78,58.71,95.55,67c3.68,4.48,5,12.19.12,16.31a5.17,5.17,0,0,1-6.16.61,5.83,5.83,0,0,1-2.21-5.47,7.25,7.25,0,0,1,3.2-5"/><path class="cls-3" d="M85.88,83.61a4.14,4.14,0,0,1-5.45-1.55,6.57,6.57,0,0,1-.1-6.35,8.15,8.15,0,0,1,4.83-3.9"/><path class="cls-3" d="M25.18,56.64a4.55,4.55,0,0,1-1.73-4.28,5.42,5.42,0,0,1,.67-2"/><path class="cls-3" d="M18,54.85c-2.63,0-4.06-2.77-4.21-5.31a8.59,8.59,0,0,1,4.14-8.32"/><path class="cls-3" d="M22.34,56.43a3.25,3.25,0,0,1-4.27-1.22,5.13,5.13,0,0,1-.08-5,6.34,6.34,0,0,1,3.79-3.05"/><path class="cls-7" d="M45.09,80.1c3.41,0,3.41-5.32,0-5.31s-3.41,5.32,0,5.31Z"/><path class="cls-5" d="M99.44,53.75c3.85,2.26,6,4.84,6,7.59,0,8.93-23,16.22-51.48,16.28S2.48,70.5,2.46,61.56C2.45,58,6.11,54.7,12.31,52"/><path class="cls-3" d="M121.09,53.3a14,14,0,0,1,.37,3c.09,8.75-8.09,18.67-23.22,18.18"/><path class="cls-3" d="M117.61,67.45a43.52,43.52,0,0,1,2.57,27.72"/><path class="cls-4" d="M57,76.09a19.35,19.35,0,0,1,7.93,9.82"/><path class="cls-4" d="M57.48,74.33a25.83,25.83,0,0,1,16.3,4.2"/><path class="cls-4" d="M33,67.75a19.4,19.4,0,0,0-7.89,9.86"/><path class="cls-4" d="M31.59,66a25.75,25.75,0,0,0-15.35,4.32"/></g></g></svg>