<svg xmlns="http://www.w3.org/2000/svg" viewBox="0 0 130.19 155.04"><defs><style>.cls-1,.cls-2,.cls-4,.cls-5,.cls-6,.cls-7{fill:none;stroke-miterlimit:10;}.cls-1,.cls-2{stroke:#666;}.cls-2{stroke-width:0.5px;}.cls-3{fill:#666;}.cls-4,.cls-5{stroke:#fff;}.cls-5{stroke-width:0.75px;}.cls-6{stroke:#ffc8a5;}.cls-7{stroke:#ff9b7d;}</style></defs><title>資產 6</title><g id="圖層_2" data-name="圖層 2"><g id="圖層_1-2" data-name="圖層 1"><path class="cls-1" d="M76.48,65.08A3.76,3.76,0,0,1,74,59.5"/><path class="cls-2" d="M73.38,60.85A3.72,3.72,0,0,1,71.1,59"/><path class="cls-2" d="M73.63,61.67a3.77,3.77,0,0,1-2.9-.4"/><path class="cls-2" d="M74,62.7a3.72,3.72,0,0,1-2,.92"/><path class="cls-1" d="M2.93,28.49A47.53,47.53,0,0,0,3.71,60.7C7.17,69.45,14.08,76.83,16.42,86"/><path class="cls-1" d="M88.51,63.16a47.68,47.68,0,0,0-8.16-44.49C65-.24,34.21-4,15,11.5"/><path class="cls-1" d="M25.86,17.92c-8.47-5.19-29.43-13.7-24.23,5.3a49,49,0,0,0,3.94,9.2"/><path class="cls-1" d="M80.8,19.44A31.79,31.79,0,0,0,77.31,4.81c-3.4-6.41-10.25-5-14.66-.26"/><path class="cls-1" d="M40.27,101.08c4.61,0,7.11-4.49,7.37-8.61,1-15.56-19.15-20.34-28.43-9.88-5,5.69-6.78,15.46-.12,20.66a7.63,7.63,0,0,0,8.49.76,7.12,7.12,0,0,0,3-6.93,9.15,9.15,0,0,0-4.41-6.35"/><path class="cls-1" d="M32.56,103.65a6,6,0,0,0,7.49-2,7.74,7.74,0,0,0,.12-8,11.07,11.07,0,0,0-6.66-4.92"/><path class="cls-1" d="M73.52,77.14a7.8,7.8,0,0,0,.42,6,5.31,5.31,0,0,0,5.14,3,5,5,0,0,0,4-3.47,5.65,5.65,0,0,0,.22-1.07"/><path class="cls-1" d="M88,88.21c2.92,1.4,5.87-.69,7.28-3.22a10.19,10.19,0,0,0,1.37-5.25"/><path class="cls-1" d="M82.35,87.5a4.18,4.18,0,0,0,5.34,1,5.41,5.41,0,0,0,2.52-5.06,6.48,6.48,0,0,0-.33-1.62"/><path class="cls-3" d="M73.57,44c0-.11,0-.23.07-.34l.06-.16c0-.08,0,.08,0-.05l.17-.3.12-.17c0,.06,0,0,0,0a2.11,2.11,0,0,1,.95-.65l.17-.05.11,0h.46s.21,0,.11,0l.11,0,.17.05.17,0c.13,0,0,0,0,0l.31.16.15.1c.11.08,0,0,0,0l.27.27a.75.75,0,0,0,1.06,0,.76.76,0,0,0,0-1.06,3.48,3.48,0,0,0-6,1.7.75.75,0,0,0,1.45.4Z"/><path class="cls-3" d="M49.2,51.23c0-.07,0-.14,0-.29a2.91,2.91,0,0,1,.12-.39,3,3,0,0,1,.37-.65s0,0,.06-.07l.14-.15.25-.24.33-.22.15-.08.12,0a2.62,2.62,0,0,1,2.76.55c.7.67,1.76-.39,1.06-1.06a4.13,4.13,0,0,0-4.3-.91,4.2,4.2,0,0,0-2.61,3.56.75.75,0,1,0,1.5,0Z"/><path class="cls-3" d="M68.46,50.09c-2.85,0-2.85-4.43,0-4.43s2.86,4.43,0,4.43Z"/><path class="cls-3" d="M68.51,49.4a16,16,0,0,1,.54,3.36.38.38,0,0,0,.37.38.38.38,0,0,0,.38-.38,17.25,17.25,0,0,0-.56-3.56.38.38,0,0,0-.73.2Z"/><path class="cls-2" d="M94.49,46.73a11.53,11.53,0,0,0-9.91-.57"/><path class="cls-2" d="M94,39.23a11.49,11.49,0,0,0-8.93,4.33"/><path class="cls-2" d="M32.72,67.92a17.27,17.27,0,0,1,12.36-8.31"/><path class="cls-4" d="M43.33,100.39a34.77,34.77,0,0,0-3.45,15.07c0,21.6,20.13,39.09,44.93,39.08S129.7,137,129.69,115.41a34.84,34.84,0,0,0-3.46-15.06"/><path class="cls-2" d="M44.51,57.08a11.92,11.92,0,0,0-5.74-1.35,1.44,1.44,0,0,0-1.4.93,1,1,0,0,0,1.45,1.24,1.13,1.13,0,0,0,.51-1.08c-.21-1.73-3.47-1.63-4.7-1.5a12.55,12.55,0,0,0-6.12,2.4"/><path class="cls-4" d="M47.51,89.09c6-2.37,15.7-4.12,27.2-4.77"/><path class="cls-4" d="M118.27,87.86c6.2,1.82,9.92,4.15,9.92,6.68,0,5.8-19.47,10.5-43.5,10.5C67.11,105,52,102.52,45.11,98.9"/><circle class="cls-5" cx="100.19" cy="111.04" r="2"/><circle class="cls-5" cx="107.19" cy="114.04" r="1"/><path class="cls-6" d="M97.56,79.08A38.85,38.85,0,0,0,85.49,60.29c-4.45-3.76-16.08-9.07-19.41-1-1.66,4,.43,9.63,2.84,13,6.61,9.12,18.51,12.89,28.64,6.83"/><path class="cls-7" d="M97.56,79.08c5.21-.32,10.9.76,16,2a10.53,10.53,0,0,1,3.6,1.47A4.14,4.14,0,0,1,119,85.88,4,4,0,0,1,117.05,89a7.48,7.48,0,0,1-3.65,1,2,2,0,0,1-1.92-.69,1.55,1.55,0,0,1,.67-1.88,3.09,3.09,0,0,1,4.15,1.08,4.54,4.54,0,0,1-.12,4.56c-3.37,5.85-13.68,6.79-17.82,1.33a11,11,0,0,1-2-7,42,42,0,0,1,1.15-8.28"/></g></g></svg>