<svg xmlns="http://www.w3.org/2000/svg" viewBox="0 0 203.65 296.35"><title>資產 48</title><g id="圖層_2" data-name="圖層 2"><g id="圖層_1-2" data-name="圖層 1"><path d="M141.71,42.26a185.75,185.75,0,0,0,7.62-19.74c.52-1.68,1-3.37,1.45-5.08s.87-3.43,1.38-5.12c1.08-3.38,2.27-6.79,4.52-9.71.29-.35.62-.69.94-1a7.4,7.4,0,0,1,1.14-.86,4.28,4.28,0,0,1,2.85-.7A5.3,5.3,0,0,1,163,.41c.4.16.78.33,1.2.47.81.3,1.65.57,2.49.83a53.33,53.33,0,0,1,10,3.91A14.42,14.42,0,0,1,181,9.1a8,8,0,0,1,.78,1.2c.2.42.46.9.61,1.27a18.69,18.69,0,0,0,1.11,2.3,79.74,79.74,0,0,0,6,8.58,22.11,22.11,0,0,1,2.85,4.72,13,13,0,0,1,.57,2.8,25,25,0,0,1,.15,2.74,18.54,18.54,0,0,1-.73,5.5,11.43,11.43,0,0,1-.5,1.34,8.48,8.48,0,0,1-.68,1.3,10.15,10.15,0,0,1-.9,1.2,8.51,8.51,0,0,1-1.17,1l-.66.41a6.44,6.44,0,0,1-.72.3,9.15,9.15,0,0,1-1.35.44c-.87.24-1.73.46-2.6.67l-5.16,1.2a93.9,93.9,0,0,0-10.1,2.76c-1.64.54-3.23,1.22-4.89,1.89s-3.29,1.31-5,1.9a25.58,25.58,0,0,1-5.29,1.3,11.41,11.41,0,0,1-2.8,0c-.89-.11-1.78-.3-2.59-.38a11,11,0,0,0-2.51.19l-2.61.42-1.31.21a4.56,4.56,0,0,1-1.43,0,2,2,0,0,1-1.32-.71,2.76,2.76,0,0,1-.52-1.36,7.91,7.91,0,0,1,.31-2.71A22.72,22.72,0,0,1,139.4,47,43,43,0,0,1,141.71,42.26Zm.18.09a40.75,40.75,0,0,0-2.16,4.82,12.28,12.28,0,0,0-1,5,1.54,1.54,0,0,0,1.43,1.51,9.18,9.18,0,0,0,2.5-.37l2.59-.56a11.48,11.48,0,0,1,2.74-.36c1,0,1.8.18,2.67.24a10.36,10.36,0,0,0,2.48-.13,26.87,26.87,0,0,0,4.91-1.49c1.62-.63,3.23-1.33,4.84-2s3.24-1.46,4.93-2.08a95.83,95.83,0,0,1,10.3-2.9l5.16-1.16q1.29-.3,2.55-.63a8,8,0,0,0,1.16-.36,4.5,4.5,0,0,0,.51-.2l.47-.29a6.87,6.87,0,0,0,2.56-3.76,16.9,16.9,0,0,0,.74-5,23.86,23.86,0,0,0-.09-2.54,12,12,0,0,0-.43-2.4,20.8,20.8,0,0,0-2.55-4.36,82.89,82.89,0,0,1-6-8.82,23.32,23.32,0,0,1-1.15-2.48,8.88,8.88,0,0,0-1.17-2.15A12.75,12.75,0,0,0,176,6.75a51.72,51.72,0,0,0-9.67-3.94c-.84-.29-1.68-.57-2.52-.89-.42-.14-.84-.34-1.26-.51a4.1,4.1,0,0,0-1.11-.31,3.18,3.18,0,0,0-2.19.52,5.08,5.08,0,0,0-1,.72,10.72,10.72,0,0,0-.87.91,30,30,0,0,0-4.61,9.28c-.56,1.67-1,3.36-1.51,5.06s-1,3.39-1.6,5.06c-1.14,3.35-2.42,6.65-3.74,9.93S143.34,39.12,141.89,42.35Z"/><path d="M141.35,54c2.94-2.58,5.83-4.94,8.85-7.31a82.23,82.23,0,0,1,9.42-6.53,14.89,14.89,0,0,1,2.66-1.2,3.41,3.41,0,0,1,1.58-.15l.65.1c.21,0,.43,0,.65,0a10.82,10.82,0,0,0,4.77-2.61c1.46-1.19,2.84-2.5,4.35-3.71a27.52,27.52,0,0,1,2.35-1.68c.76-.53,1.51-1.12,2.26-1.7,3-2.31,6-4.79,9.67-6.3a10.22,10.22,0,0,1,2.94-.72,5.7,5.7,0,0,1,3.09.62A13.23,13.23,0,0,1,198.75,27a33.8,33.8,0,0,1,4.55,10.7,12.32,12.32,0,0,1,.34,3,3.19,3.19,0,0,1-.49,1.76l-.18.24-.09.11-.19.21a4.27,4.27,0,0,0-.3.51,8.9,8.9,0,0,0-.42,5.13,14.43,14.43,0,0,0,.64,2.63,15.39,15.39,0,0,1,.87,2.87,7.61,7.61,0,0,1-.19,3.19,13.1,13.1,0,0,1-1.18,2.83c-.47.85-1.08,1.73-1.57,2.46a22.8,22.8,0,0,0-1.31,2.4c-.8,1.68-1.52,3.44-2.3,5.2a30.9,30.9,0,0,1-2.83,5.18,10.53,10.53,0,0,1-2.14,2.3,6.38,6.38,0,0,1-3.07,1.34,7,7,0,0,1-3.28-.38,11.85,11.85,0,0,1-1.46-.62l-1.25-.62a41.85,41.85,0,0,0-5.17-2.06c-3.53-1.21-7.28-1.85-11-3a37,37,0,0,1-5.46-2,41.27,41.27,0,0,0-5.24-2c-1.8-.55-3.64-1-5.48-1.55a19.8,19.8,0,0,1-5.4-2.24A6.87,6.87,0,0,1,143,62.5a7.81,7.81,0,0,1-.86-2.86Zm.19.07,1.21,5.55a7.08,7.08,0,0,0,.91,2.53,6,6,0,0,0,2,1.77,18.94,18.94,0,0,0,5.21,1.89c1.83.45,3.7.84,5.56,1.33A36.16,36.16,0,0,1,161.92,69a34.69,34.69,0,0,0,5.28,1.83c3.6,1,7.41,1.54,11.14,2.7a45.08,45.08,0,0,1,5.44,2.13l1.31.64a10.89,10.89,0,0,0,1.18.49,5,5,0,0,0,2.33.27,6,6,0,0,0,3.85-2.77,28.35,28.35,0,0,0,2.68-4.82c.8-1.7,1.54-3.46,2.41-5.2A25.9,25.9,0,0,1,199,61.65c.58-.84,1.08-1.52,1.54-2.32a7.62,7.62,0,0,0,1.25-4.88,13.5,13.5,0,0,0-.75-2.6,17.85,17.85,0,0,1-.67-2.92,10.5,10.5,0,0,1,.65-6.07,6.54,6.54,0,0,1,.45-.71l.28-.33.14-.16,0,0a2,2,0,0,0,.23-1,11.09,11.09,0,0,0-.28-2.64,32.41,32.41,0,0,0-4.22-10.28A12,12,0,0,0,194,23.81c-1.45-.82-3.34-.54-5,.1-3.43,1.35-6.44,3.75-9.47,6-.77.58-1.53,1.15-2.34,1.69a26.61,26.61,0,0,0-2.33,1.61c-1.48,1.15-2.89,2.43-4.4,3.62a11.27,11.27,0,0,1-5.2,2.68,5,5,0,0,1-.77,0l-.76-.12a2.72,2.72,0,0,0-1.24.12,13.63,13.63,0,0,0-2.56,1.1A82.29,82.29,0,0,0,150.45,47C147.42,49.23,144.4,51.66,141.54,54Z"/><path d="M141.37,53.92a1,1,0,0,1,.39,0l.3,0,.6.07,1.2.16,2.4.31,4.79.68c3.2.47,6.38,1,9.56,1.54s6.36,1.19,9.51,1.9a73.86,73.86,0,0,1,9.36,2.69,21.65,21.65,0,0,1,2.26,1,7.19,7.19,0,0,1,2.11,1.52c.6.66,1,1.25,1.56,1.85s1.08,1.17,1.63,1.75c1.12,1.16,2.28,2.3,3.31,3.6a12.11,12.11,0,0,1,2.42,4.45,8.18,8.18,0,0,1-.4,5.15c-.17.39-.32.8-.52,1.17l-.66,1.09c-.44.73-.94,1.34-1.4,2-1.92,2.63-4,5.12-6.15,7.54a26.2,26.2,0,0,0-2.78,3.76,9.31,9.31,0,0,0-.86,2l-.09.28-.13.39a4,4,0,0,1-.4.7,4.61,4.61,0,0,1-1.08,1,11.12,11.12,0,0,1-5,1.62,25.26,25.26,0,0,1-10-.86,14.3,14.3,0,0,1-2.41-.94,9.87,9.87,0,0,1-1.17-.68,11.51,11.51,0,0,1-1-.84,16,16,0,0,1-3.2-4c-.85-1.45-1.54-2.93-2.25-4.37a81.14,81.14,0,0,0-4.53-8.43,38.25,38.25,0,0,1-3.89-9.06,86.38,86.38,0,0,1-2.24-9.48c-.29-1.59-.53-3.19-.75-4.8l-.29-2.4-.12-1.21-.06-.61A3.53,3.53,0,0,1,141.37,53.92Zm.14.14c.09.09.09.32.13.51l.11.6.22,1.19.46,2.37c.33,1.57.68,3.15,1.07,4.7a90.61,90.61,0,0,0,2.68,9.24,40.84,40.84,0,0,0,4,8.56,86,86,0,0,1,4.88,8.47c1.45,2.9,2.74,5.78,5,7.72a9.49,9.49,0,0,0,3.83,2.07,23,23,0,0,0,4.54.9,22.4,22.4,0,0,0,4.63,0,9.65,9.65,0,0,0,4.17-1.22,2.93,2.93,0,0,0,.68-.62,1.68,1.68,0,0,0,.2-.34l.07-.18a2.62,2.62,0,0,0,.1-.3,11.15,11.15,0,0,1,1.06-2.39,27.54,27.54,0,0,1,3-4c2.16-2.42,4.27-4.81,6.19-7.37.46-.64,1-1.28,1.39-1.93l.61-1c.19-.33.32-.69.48-1a6.82,6.82,0,0,0,.41-4.31,10.88,10.88,0,0,0-2.12-4c-1-1.24-2.08-2.39-3.18-3.57-.55-.59-1.11-1.18-1.64-1.81s-1-1.34-1.53-1.88a6.63,6.63,0,0,0-1.79-1.31,20.9,20.9,0,0,0-2.14-1,71.61,71.61,0,0,0-9.17-2.84c-3.13-.78-6.27-1.46-9.44-2.09s-6.33-1.2-9.51-1.74Z"/><path d="M141.37,53.92c.9-5.92,1.77-12,2.34-18.06a70.75,70.75,0,0,0,.4-9.07,10.92,10.92,0,0,0-.28-2.18,10.62,10.62,0,0,0-1-1.94l-2.19-4c-1.46-2.66-2.95-5.32-4.58-7.85a24.17,24.17,0,0,0-2.68-3.54,3.27,3.27,0,0,0-.74-.57l-.13-.05s0,0,0,0-.15.08-.29.18L130.28,8l-7.78,4.82c-2.6,1.58-5.2,3.14-7.6,4.93a25.18,25.18,0,0,0-3.33,2.9,9.47,9.47,0,0,0-2.24,3.47,7.83,7.83,0,0,0-.19.94l0,1a5.35,5.35,0,0,1-.68,2.66,21.81,21.81,0,0,1-2.8,3.87c-1,1.17-2,2.3-2.87,3.47a6.34,6.34,0,0,0-1.58,3.44c0,.94,1,1.77,2.27,2.33s2.78,1.13,4.18,1.67c5.64,2.26,11.41,4.25,17,6.76a41.59,41.59,0,0,1,4.13,2.15c.33.23.66.43,1,.69s.66.58.88.75a3.72,3.72,0,0,0,.84.52,8.41,8.41,0,0,0,1,.3C135.38,55.27,138.55,54.6,141.37,53.92Zm.15.13a24.89,24.89,0,0,1-4.47,1.3,14.32,14.32,0,0,1-4.68.25,6.41,6.41,0,0,1-1.19-.28,5.16,5.16,0,0,1-1.13-.61l-.9-.7c-.28-.2-.61-.38-.91-.57a37.79,37.79,0,0,0-4.09-1.85c-5.63-2.21-11.43-4.1-17.17-6.18-1.45-.55-2.84-1.06-4.32-1.68a7.85,7.85,0,0,1-2.22-1.4,4,4,0,0,1-1.29-2.7,5.47,5.47,0,0,1,.69-2.69,14.42,14.42,0,0,1,1.34-2.07c1-1.26,2-2.39,3-3.53a21,21,0,0,0,2.62-3.46,3.5,3.5,0,0,0,.51-1.69V24.91a11,11,0,0,1,.29-1.29,11.16,11.16,0,0,1,2.72-4.11,27.65,27.65,0,0,1,3.61-3c2.52-1.82,5.19-3.35,7.81-4.89l7.84-4.68,2-1.17a2.65,2.65,0,0,1,.72-.34,1.63,1.63,0,0,1,.54,0,2.74,2.74,0,0,1,.4.15,4.34,4.34,0,0,1,1.06.83,24.14,24.14,0,0,1,2.78,3.78c1.62,2.61,3.07,5.3,4.49,8l2.1,4.06.53,1a4,4,0,0,1,.47,1.15,11.3,11.3,0,0,1,.26,2.36,71.53,71.53,0,0,1-.61,9.16c-.35,3-.77,6-1.24,9.07S142.11,51,141.52,54.05Z"/><path d="M141.34,54a4.84,4.84,0,0,1-.66-.6L140,52.7l-1.4-1.35-2.79-2.68Q133,46,130.14,43.37c-1.9-1.74-3.82-3.47-5.78-5.14-1-.83-2-1.65-3-2.44a15,15,0,0,0-3.17-2,26.65,26.65,0,0,0-7.37-1.71,25.53,25.53,0,0,0-7.52.18,5.15,5.15,0,0,0-.84.25c-.13,0-.27.09-.39.15l-.31.2a9.51,9.51,0,0,0-1.35,1.2,8.6,8.6,0,0,0-1.84,3,14.14,14.14,0,0,0-.18,7.26c.52,2.48,1.18,5,1.85,7.47.34,1.24.69,2.49,1,3.77.15.65.29,1.31.39,2,0,.34.08.69.11,1l0,.93a3.83,3.83,0,0,0,1.33,2.66,2.33,2.33,0,0,0,1.24.5,2.07,2.07,0,0,0,.7,0l.5-.07a3.73,3.73,0,0,1,.57,0,18.91,18.91,0,0,1,4.08.43c1.28.23,2.54.5,3.76.67a12.71,12.71,0,0,0,1.79.17l.94,0c.36,0,.7,0,1,0,1.35.07,2.62.24,3.87.31a14.25,14.25,0,0,0,3.65-.18,7.3,7.3,0,0,0,1.65-.56,17.71,17.71,0,0,0,1.64-.89c2.18-1.32,4.31-2.78,6.44-4.24l3.2-2.19,1.59-1.1.8-.55.4-.28C141.11,54.11,141.26,54,141.34,54Zm.2,0a2.33,2.33,0,0,1-.4.39l-.37.32-.74.63-1.49,1.24-3,2.46c-2,1.61-4.08,3.19-6.23,4.68-.55.37-1.09.74-1.71,1.08a9.28,9.28,0,0,1-2,.75,16.15,16.15,0,0,1-4.07.36c-1.32,0-2.63-.16-3.86-.18l-.9,0-1,.07a17.53,17.53,0,0,1-2.08-.11c-1.33-.18-2.61-.44-3.87-.66a18,18,0,0,0-3.61-.36,1.7,1.7,0,0,0-.4,0l-.45.06a4.68,4.68,0,0,1-1.24,0,4.43,4.43,0,0,1-2.29-1,5.82,5.82,0,0,1-2-4.09l0-.57v-.44c0-.29,0-.58-.07-.88-.07-.59-.18-1.2-.31-1.82-.27-1.24-.59-2.49-.89-3.74-.62-2.53-1.22-5-1.69-7.63a15.55,15.55,0,0,1,.39-8.05,9.93,9.93,0,0,1,2.2-3.5A12.52,12.52,0,0,1,101,31.78l.52-.3a5.55,5.55,0,0,1,.52-.2,6.65,6.65,0,0,1,1-.28,27,27,0,0,1,7.93-.06,27.62,27.62,0,0,1,7.64,1.95,15.53,15.53,0,0,1,3.32,2.19c1,.83,2,1.68,3,2.55,1.92,1.73,3.8,3.51,5.67,5.31s3.69,3.62,5.52,5.45l2.73,2.75,1.35,1.39.68.69A8,8,0,0,1,141.54,54Z"/><path d="M58.82,217.5A272.7,272.7,0,0,0,45.36,189c-1.28-2.3-2.6-4.57-4-6.79s-2.82-4.46-4.08-6.77a61.15,61.15,0,0,1-3.42-7.17A25.47,25.47,0,0,1,32,160.46a9.08,9.08,0,0,1,.68-4.09,6,6,0,0,1,3-3c.67-.3,1.26-.51,1.86-.75s1.19-.52,1.79-.78c1.19-.54,2.37-1.11,3.56-1.68,2.37-1.14,4.76-2.28,7.2-3.3a49.48,49.48,0,0,1,7.56-2.57,22.29,22.29,0,0,1,8.07-.63,16.32,16.32,0,0,1,4,1.08,35,35,0,0,0,3.67,1.2c5,1.36,10.24,1.85,15.47,2.58a41,41,0,0,1,7.88,1.65c.33.12.66.24,1,.38l1,.49c.61.36,1.17.72,1.72,1.12a38.23,38.23,0,0,1,3.16,2.51,30.17,30.17,0,0,1,5.34,6.13,12.82,12.82,0,0,1,2.32,8.05,5.08,5.08,0,0,1-.19,1.09,9.82,9.82,0,0,1-.3,1.06l-.46,1-.24.5-.26.42c-.68,1.15-1.39,2.27-2.11,3.38-1.45,2.22-2.91,4.41-4.38,6.59A139.28,139.28,0,0,0,95,196.24c-1.23,2.28-2.26,4.65-3.33,7.08s-2.17,4.81-3.37,7.19a38.26,38.26,0,0,1-4.29,6.8,16.9,16.9,0,0,1-3,2.82c-1.07.8-2.21,1.5-3.21,2.26a15.5,15.5,0,0,0-2.57,2.82l-2.38,3.14-1.19,1.58c-.21.26-.44.52-.66.78a7.51,7.51,0,0,1-.79.69,3.26,3.26,0,0,1-2,.67,3.71,3.71,0,0,1-2-.71,10.9,10.9,0,0,1-2.68-3,29.35,29.35,0,0,1-1.9-3.48A56.47,56.47,0,0,1,58.82,217.5Zm.19-.07a56.49,56.49,0,0,0,2.94,7.3,30.08,30.08,0,0,0,1.95,3.41,10.4,10.4,0,0,0,2.6,2.8,3,3,0,0,0,1.7.57,2.61,2.61,0,0,0,1.64-.62,6.59,6.59,0,0,0,.67-.63l.58-.75,1.13-1.61,2.27-3.24a16.21,16.21,0,0,1,2.63-3.1c1.06-.87,2.14-1.59,3.15-2.4a16.12,16.12,0,0,0,2.64-2.71,39.08,39.08,0,0,0,3.88-6.68c1.12-2.35,2.15-4.76,3.17-7.18s2-4.89,3.23-7.27a140.48,140.48,0,0,1,8.24-13.6l4.39-6.54q1.08-1.63,2.1-3.3l.25-.42.19-.39.37-.78a8.56,8.56,0,0,0,.23-.83,3,3,0,0,0,.16-.85,10.86,10.86,0,0,0-2-6.83,28.88,28.88,0,0,0-4.93-5.8c-1-.84-1.94-1.68-3-2.42a18.81,18.81,0,0,0-1.57-1.06l-.79-.42-.86-.34a39.83,39.83,0,0,0-7.53-1.66c-5.18-.77-10.47-1.31-15.63-2.76A38,38,0,0,1,69.06,146a15,15,0,0,0-3.62-1,21.17,21.17,0,0,0-7.58.53A49.18,49.18,0,0,0,50.47,148c-2.42,1-4.8,2.09-7.18,3.21-1.19.56-2.39,1.12-3.59,1.66-.62.26-1.22.54-1.84.77s-1.27.48-1.81.71a5,5,0,0,0-2.47,2.48,8.16,8.16,0,0,0-.62,3.63A24.53,24.53,0,0,0,34.65,168a60,60,0,0,0,3.24,7.13c1.22,2.32,2.57,4.56,3.94,6.82s2.66,4.55,3.9,6.88c2.49,4.64,4.76,9.39,7,14.18S57,212.55,59,217.43Z"/><path d="M71.21,229.81a2,2,0,0,1,.41-.36l.37-.26.74-.54,1.49-1.07,3-2.13,6-4.2q6-4.17,12.17-8.17t12.46-7.73a116.67,116.67,0,0,1,13.06-6.74,37.13,37.13,0,0,1,3.49-1.27,13.52,13.52,0,0,1,3.74-.67c.32,0,.68,0,1,0l.89.12c.6,0,1.2.11,1.8.14,1.21.08,2.42.11,3.64.13,2.43.05,4.89.05,7.36.26a21.11,21.11,0,0,1,7.3,1.73,11.76,11.76,0,0,1,5.5,5.27,17.11,17.11,0,0,1,1.32,3.58c.3,1.24.48,2.44.7,3.65.39,2.43.72,4.86,1,7.31s.41,4.89.61,7.31a31.42,31.42,0,0,0,1.18,7l.28.82.35.78a6.86,6.86,0,0,0,.4.76c.15.28.25.44.45.82a5.58,5.58,0,0,1,.21,4.23,18.27,18.27,0,0,1-4.06,6.5,38.35,38.35,0,0,1-5.55,5A35.66,35.66,0,0,1,146,256a20.72,20.72,0,0,1-3.62,1.29l-1,.2-1,.13c-.64,0-1.27.1-1.91.1a28.16,28.16,0,0,1-7.51-1c-2.41-.64-4.73-1.43-7.05-2.17a136.5,136.5,0,0,0-14-3.85A63.37,63.37,0,0,1,96,245.58a142.15,142.15,0,0,1-12.78-7.27c-2.06-1.31-4.09-2.69-6.1-4.08-1-.71-2-1.41-3-2.13L72.71,231l-.73-.55A5.64,5.64,0,0,1,71.21,229.81Zm.2,0,6.07,3.94c2.07,1.29,4.14,2.57,6.26,3.78a140.4,140.4,0,0,0,12.9,6.79,67,67,0,0,0,13.63,4.74,135.11,135.11,0,0,1,14.28,3.63c4.67,1.45,9.24,3.13,13.92,3,.58,0,1.17-.07,1.75-.09l.83-.11.82-.17a18.23,18.23,0,0,0,3.28-1.14,33.33,33.33,0,0,0,6.11-3.6,36.89,36.89,0,0,0,5.34-4.71,16.71,16.71,0,0,0,3.74-5.76,3.85,3.85,0,0,0-.05-2.9c-.06-.17-.28-.53-.42-.79s-.32-.57-.44-.87l-.38-.89-.31-.92a33,33,0,0,1-1.15-7.41c-.18-2.45-.32-4.87-.54-7.29s-.51-4.82-.87-7.22c-.21-1.19-.38-2.41-.64-3.55a16.23,16.23,0,0,0-1.18-3.28,10.35,10.35,0,0,0-4.83-4.73,20.21,20.21,0,0,0-6.85-1.68c-2.4-.23-4.83-.26-7.28-.33-1.22,0-2.45-.08-3.68-.17-.62,0-1.23-.1-1.85-.17l-.92-.12c-.3,0-.56,0-.84,0a12.69,12.69,0,0,0-3.44.6,33.64,33.64,0,0,0-3.41,1.19,116.46,116.46,0,0,0-13,6.52c-4.24,2.4-8.42,4.93-12.54,7.53s-8.21,5.28-12.26,8l-6.06,4.11-3,2.09-1.5,1.05-.74.53-.38.26C71.61,229.7,71.5,229.84,71.41,229.81Z"/><path d="M71.21,229.81c-5.53-7.12-11.27-14.32-17.27-21.15a104.28,104.28,0,0,0-9.51-9.75A15.92,15.92,0,0,0,41.72,197a4.62,4.62,0,0,0-.71-.29l-.82-.22L38.53,196l-6.59-1.84c-4.39-1.21-8.8-2.39-13.24-3.32a48.35,48.35,0,0,0-6.67-1,9.5,9.5,0,0,0-1.61.05,1.61,1.61,0,0,0-1,.36l-.81,3.19L5.23,206.77A132,132,0,0,0,2.18,220a34.85,34.85,0,0,0-.48,6.66,11.79,11.79,0,0,0,1.65,6.07,5.58,5.58,0,0,0,1,1.14l.55.51a10,10,0,0,1,.75.7,8.58,8.58,0,0,1,1.71,3.41,37.82,37.82,0,0,1,1,7,61.74,61.74,0,0,0,.74,6.68c.41,2.11,1.2,4.21,2.79,4.91a4.89,4.89,0,0,0,2.77.21,15.14,15.14,0,0,0,3-.92c2.12-.84,4.22-1.7,6.32-2.59l12.61-5.3c4.22-1.76,8.43-3.54,12.76-5.07a61.13,61.13,0,0,1,6.63-2c.58-.1,1.14-.24,1.74-.3S59,241,59.46,241a6,6,0,0,0,1.52-.35,11.57,11.57,0,0,0,1.45-.73C66.16,237.51,68.89,233.55,71.21,229.81Zm.2,0a38.23,38.23,0,0,1-3.61,5.91,21.37,21.37,0,0,1-4.88,4.94,11.42,11.42,0,0,1-1.57.87,7.19,7.19,0,0,1-1.78.47l-1.69.19c-.54.07-1.08.22-1.62.33a62.6,62.6,0,0,0-6.4,2.17c-8.44,3.37-16.7,7.26-25.08,10.91-2.1.9-4.22,1.78-6.34,2.64A17,17,0,0,1,15,259.29a6.79,6.79,0,0,1-4-.35,5.88,5.88,0,0,1-2.83-2.89,13.54,13.54,0,0,1-1.11-3.52,62,62,0,0,1-.71-6.92,36.87,36.87,0,0,0-.84-6.6,7,7,0,0,0-1.27-2.69c-.15-.18-.33-.3-.48-.47l-.71-.65a7.4,7.4,0,0,1-1.21-1.47,13.51,13.51,0,0,1-1.84-7,35.85,35.85,0,0,1,.59-7,134.47,134.47,0,0,1,3.23-13.38l3.52-13.22.44-1.66.22-.82.11-.41.05-.21a2,2,0,0,1,.12-.33,1.81,1.81,0,0,1,1-.82,4.71,4.71,0,0,1,1-.22,11,11,0,0,1,1.81,0,46.57,46.57,0,0,1,6.85,1.08c4.49,1,8.89,2.21,13.28,3.48l6.57,1.93,1.64.47.82.24a4.84,4.84,0,0,1,.87.37A16.37,16.37,0,0,1,45,198.3a102.07,102.07,0,0,1,9.44,10c3,3.47,5.85,7,8.67,10.61S68.65,226,71.41,229.8Z"/><path d="M71.24,229.87l-11.61.18c-3.89.08-7.79.17-11.68.31s-7.78.3-11.66.57c-1.94.14-3.88.27-5.8.49a36.26,36.26,0,0,0-5.67.94,26.44,26.44,0,0,0-5.24,2.29,47.78,47.78,0,0,0-4.87,3.11,43.93,43.93,0,0,0-8.46,7.74,10,10,0,0,0-.83,1.14l-.37.58-.29.6a1.89,1.89,0,0,0-.23.59c0,.2-.12.37-.15.6,0,.47-.09.93-.11,1.4a12.07,12.07,0,0,0,1,5.39c1.45,3.42,4.41,6,7.55,8.12s6.66,3.94,10.06,5.8c1.71.93,3.43,1.84,5.14,2.81a27.18,27.18,0,0,1,5,3.39,7.31,7.31,0,0,0,4.58,2.1,4.91,4.91,0,0,0,2.35-.43,4.72,4.72,0,0,0,1.8-1.54A12.3,12.3,0,0,1,44,273.81c.8-.64,1.62-1.19,2.44-1.75,1.65-1.09,3.31-2.1,4.9-3.17.8-.53,1.57-1.07,2.3-1.65a28,28,0,0,0,2.06-2c1.49-1.4,3.07-2.54,4.57-3.75a27,27,0,0,0,4.07-3.92,13.44,13.44,0,0,0,1.47-2.31,16,16,0,0,0,.92-2.63c1-3.72,1.69-7.56,2.41-11.38l1-5.74.51-2.88.25-1.44.13-.72A2.23,2.23,0,0,1,71.24,229.87Zm.15-.13a5.93,5.93,0,0,1,0,.81l-.08.72-.15,1.46-.34,2.9-.72,5.81c-.56,3.86-1.11,7.72-2,11.57a16.57,16.57,0,0,1-.9,2.92,13.4,13.4,0,0,1-1.59,2.65,27.51,27.51,0,0,1-4.22,4.27c-1.5,1.28-3.06,2.47-4.38,3.76a26.46,26.46,0,0,1-2.12,2.12c-.78.65-1.59,1.25-2.41,1.81-1.63,1.12-3.29,2.14-4.88,3.21a18.36,18.36,0,0,0-4.18,3.53,6.72,6.72,0,0,1-2.6,2.19,6.94,6.94,0,0,1-3.34.58,9.31,9.31,0,0,1-5.82-2.69,25.54,25.54,0,0,0-4.6-3.2c-1.66-1-3.37-1.91-5.07-2.88-3.4-1.93-6.76-3.85-10.08-6a29.55,29.55,0,0,1-4.62-3.83,16.7,16.7,0,0,1-3.38-5.05,13.56,13.56,0,0,1-1-6A15.13,15.13,0,0,1,3,248.84a5.51,5.51,0,0,1,.5-1.58l.36-.71.42-.64a12.47,12.47,0,0,1,.91-1.22,44.82,44.82,0,0,1,8.82-7.87,47.73,47.73,0,0,1,5-3.11,27,27,0,0,1,5.47-2.31,37,37,0,0,1,5.86-.88c2-.18,3.9-.29,5.85-.39,3.89-.2,7.79-.29,11.69-.37s7.79-.1,11.69-.11h5.84l2.92,0h1.46C70.36,229.71,70.78,229.67,71.39,229.74Z"/><path d="M69.07,228.92a106,106,0,0,1-5.47,10.79,107.25,107.25,0,0,1-7,9.88c-4.78,6.46-9.57,13.09-11.71,20.89-.7,1.92-1.56,3.76-2.35,5.6a16.79,16.79,0,0,0-1.61,5.59,6.36,6.36,0,0,0,.07,1.38,3.69,3.69,0,0,0,.18.65,2.87,2.87,0,0,0,.23.64,5.63,5.63,0,0,0,.74,1.15l.45.53a4.73,4.73,0,0,0,.53.46,27.78,27.78,0,0,0,5,3,32.58,32.58,0,0,0,5.44,2.32,17.41,17.41,0,0,0,5.77.61c4-.17,8-.65,12.05-.87a34.67,34.67,0,0,1,6.19.11,19.17,19.17,0,0,1,3.09.6c1,.27,1.92.55,2.87.75,1.89.42,3.7.42,5.06-.63a8.12,8.12,0,0,0,1.82-2,19.74,19.74,0,0,1,2-2.49c1.44-1.55,3-2.81,4.33-4.21a10,10,0,0,0,2.6-4.77.61.61,0,0,0,0-.21,1.76,1.76,0,0,0,0-.23,5.14,5.14,0,0,0-.1-.61,12.38,12.38,0,0,0-.38-1.34c-.31-.91-.68-1.83-1.07-2.74-.79-1.81-1.68-3.61-2.59-5.39-1.8-3.58-3.73-7.1-5.73-10.6s-4-7-6.09-10.42-4.25-6.85-6.54-10.16c-1.16-1.65-2.34-3.27-3.6-4.84-.63-.79-1.28-1.56-2-2.28a10.34,10.34,0,0,0-1.1-1,2.62,2.62,0,0,0-.62-.36C69.36,228.68,69.16,228.71,69.07,228.92Zm-.18-.09.12-.18a1.13,1.13,0,0,1,.21-.12.87.87,0,0,1,.43,0,2.77,2.77,0,0,1,.7.38,10.06,10.06,0,0,1,1.15,1c.73.71,1.4,1.47,2,2.24,1.31,1.55,2.54,3.15,3.74,4.78q3.63,4.84,7,9.87c2.27,3.34,4.49,6.72,6.62,10.16s4.15,6.95,6.07,10.52c.94,1.8,1.85,3.62,2.69,5.5.41.94.81,1.89,1.15,2.89a14.2,14.2,0,0,1,.45,1.56,5.78,5.78,0,0,1,.14.88,3,3,0,0,1,0,.52,2.21,2.21,0,0,1-.08.54,11.92,11.92,0,0,1-3.14,5.7c-1.46,1.56-3.06,2.79-4.37,4.19A16.77,16.77,0,0,0,92,291.53a9.66,9.66,0,0,1-2.3,2.4,6.37,6.37,0,0,1-3.27,1.18,10.89,10.89,0,0,1-3.27-.32c-1-.23-2-.55-3-.82a18,18,0,0,0-2.83-.6,32.94,32.94,0,0,0-5.89-.19c-4,.17-8,.59-12.09.72a18.71,18.71,0,0,1-6.2-.75,33.24,33.24,0,0,1-5.65-2.48c-.89-.48-1.78-1-2.66-1.47-.44-.23-.89-.55-1.33-.83a7.7,7.7,0,0,1-1.26-1c-.19-.18-.41-.34-.59-.54l-.52-.63a6.7,6.7,0,0,1-.87-1.4,3.63,3.63,0,0,1-.28-.78,5.85,5.85,0,0,1-.2-.8,7.54,7.54,0,0,1-.07-1.64,18,18,0,0,1,1.77-6c.83-1.85,1.7-3.66,2.4-5.52l1-2.85c.38-.95.77-1.9,1.22-2.81a55.11,55.11,0,0,1,3-5.31c2.19-3.42,4.63-6.64,7.11-9.82a101,101,0,0,0,7.16-9.73A104.72,104.72,0,0,0,68.89,228.83Z"/><path d="M68.9,228.81a.76.76,0,0,1,.38,0l.29,0,.58.07,1.15.15,2.31.32c1.53.23,3.07.48,4.6.76,3.05.55,6.09,1.21,9.1,2a65.37,65.37,0,0,1,8.86,3,32.31,32.31,0,0,1,4.17,2.16,14.17,14.17,0,0,1,3.61,3.09c1.75,2.54,4.48,4,7.3,5.22a66.16,66.16,0,0,0,8.8,2.78l9,2.24a39.69,39.69,0,0,1,8.89,3.17,7.52,7.52,0,0,1,4,8.48,10.28,10.28,0,0,1-2.53,4.23,23.23,23.23,0,0,1-3.65,3.1c-5.19,3.63-11,6-16.53,8.73a20,20,0,0,0-1.94,1.1l-.42.3-.4.36a6.72,6.72,0,0,0-.76.75,18.31,18.31,0,0,0-2.44,3.69c-1.41,2.68-2.65,5.68-4.87,8.16a12.07,12.07,0,0,1-4,3.07,8.61,8.61,0,0,1-5.15.4,15.89,15.89,0,0,1-4.62-1.81,23.67,23.67,0,0,1-4-2.86l.24.17a55.15,55.15,0,0,1-7.4-4.76,26.69,26.69,0,0,1-3.34-3,15.23,15.23,0,0,1-1.45-1.82,9.86,9.86,0,0,1-1-2.18,27.55,27.55,0,0,1-1-4.35c-.24-1.44-.43-2.88-.58-4.32-.31-2.88-.51-5.76-.75-8.62-.12-1.42-.24-2.86-.44-4.23-.05-.33-.12-.66-.18-1a2,2,0,0,1-.11-.32l-.28-.63c-.25-.75-.44-1.44-.61-2.15-.7-2.81-1.27-5.63-1.85-8.45s-1.1-5.65-1.61-8.48l-.77-4.25L69.24,231,69.06,230A7.77,7.77,0,0,1,68.9,228.81Zm.15.13a4.58,4.58,0,0,1,.27,1l.24,1.05.49,2.1,1,4.2,2,8.39c.67,2.79,1.35,5.59,2.13,8.33.19.68.41,1.37.63,2,.06.12.11.24.16.36s.21.45.3.68q.16.58.27,1.14c.27,1.47.39,2.9.55,4.34.3,2.86.56,5.72.92,8.55.18,1.42.39,2.82.65,4.21a24.49,24.49,0,0,0,1,4,7.37,7.37,0,0,0,.81,1.72,15,15,0,0,0,1.25,1.54,25.5,25.5,0,0,0,3.11,2.74,54.61,54.61,0,0,0,7.13,4.52l.12.06.12.11a17.7,17.7,0,0,0,7.54,4.22,6.86,6.86,0,0,0,4-.25,10.67,10.67,0,0,0,3.35-2.53c2-2.14,3.21-5,4.71-7.73a19.52,19.52,0,0,1,2.75-4,7.4,7.4,0,0,1,.9-.87l.48-.41.53-.37a22.33,22.33,0,0,1,2.12-1.17c5.63-2.73,11.41-5,16.46-8.44a22.35,22.35,0,0,0,3.46-2.87,9,9,0,0,0,2.25-3.64,5.5,5.5,0,0,0-.4-4.07c-.18-.31-.34-.64-.53-.94a5.35,5.35,0,0,0-.66-.78,8.8,8.8,0,0,0-1.75-1.29,39.46,39.46,0,0,0-8.57-3.14l-9-2.34a67.53,67.53,0,0,1-8.89-2.94,24.91,24.91,0,0,1-4.16-2.24,15,15,0,0,1-1.85-1.52,16,16,0,0,1-1.53-1.83,13.65,13.65,0,0,0-3.39-3,29.65,29.65,0,0,0-4-2.17,63.75,63.75,0,0,0-8.74-3.07c-3-.84-6-1.53-9-2.13-1.52-.3-3-.57-4.57-.83l-2.3-.35-1.15-.17-.58-.07-.29,0C69.18,229,69,229,69.05,228.94Z"/><path d="M71.24,229.88c0-.19,0-.38,0-.58v-.51l0-1,0-2,0-4.08,0-8.14c0-5.43.07-10.86.24-16.29s.42-10.86,1.06-16.28c.09-.68.15-1.36.26-2l.37-2A19.32,19.32,0,0,1,74.32,173a43.24,43.24,0,0,1,3.94-7.22,21.45,21.45,0,0,1,2.7-3.17,17.5,17.5,0,0,1,1.6-1.37,15.74,15.74,0,0,1,1.8-1.1,12.59,12.59,0,0,1,2-.82,12.37,12.37,0,0,1,2.08-.42,12.66,12.66,0,0,1,2.13-.09c.7,0,1.35.08,2,.08a8.2,8.2,0,0,0,1.89-.14,2.16,2.16,0,0,0,.73-.3c.22-.16.46-.4.79-.63a10,10,0,0,1,4.1-1.34,38.06,38.06,0,0,1,8.28-.36,15.6,15.6,0,0,1,7.82,3,40.84,40.84,0,0,1,5.86,5.82,14,14,0,0,0,2.9,2.53,3.93,3.93,0,0,0,.82.41,2.62,2.62,0,0,0,.85.3l.9.21,1.07.2a14.32,14.32,0,0,1,4,1.68,21.86,21.86,0,0,1,3.31,2.63c2,1.93,3.69,4.17,5.42,6.16.22.25.44.49.66.71s.2.19.36.37a3.78,3.78,0,0,1,.42.54,8.31,8.31,0,0,1,.85,2.13,34,34,0,0,1,.74,4.12c.68,5.44.9,10.87,1.82,16.13a29.67,29.67,0,0,0,.9,3.83,12.75,12.75,0,0,0,.7,1.73c.27.55.65,1.18,1,1.78a34,34,0,0,1,1.81,3.79,9.91,9.91,0,0,1,.58,2.19,4.92,4.92,0,0,1-.23,2.5,5.29,5.29,0,0,1-1.41,2,10.25,10.25,0,0,1-1.82,1.34c-1.23.72-2.46,1.33-3.71,1.92-2.5,1.15-5,2.19-7.61,3.13s-5.19,1.75-7.86,2.44a38.4,38.4,0,0,1-8.2,1.29c-5.49.25-10.93,0-16.36-.27-2.71-.13-5.42-.3-8.11-.36l-8.25-.13Zm.14-.14,16.33-.38,8-.13c2.74,0,5.45.06,8.17.12,5.41.09,10.85.29,16.2-.06a36.83,36.83,0,0,0,7.83-1.37c2.58-.72,5.13-1.58,7.64-2.52s5-2,7.44-3.1c1.2-.57,2.4-1.17,3.51-1.83a5.21,5.21,0,0,0,2.34-2.34,4.94,4.94,0,0,0-.33-3.25,32.61,32.61,0,0,0-1.68-3.56c-.31-.61-.63-1.15-1-1.81a14.49,14.49,0,0,1-.82-2,32.21,32.21,0,0,1-.93-4.1c-.89-5.46-1-10.91-1.64-16.25a32.37,32.37,0,0,0-.66-3.9,6.61,6.61,0,0,0-.62-1.65,1.26,1.26,0,0,0-.19-.27c-.06-.08-.23-.24-.35-.36s-.48-.53-.71-.79c-1.8-2.13-3.36-4.29-5.26-6.13a20.25,20.25,0,0,0-3-2.46,12.66,12.66,0,0,0-3.48-1.52l-.93-.18-1.08-.25a4,4,0,0,1-1.06-.39,5.44,5.44,0,0,1-1-.51,15.05,15.05,0,0,1-3.2-2.82,39.86,39.86,0,0,0-5.61-5.7,14.25,14.25,0,0,0-7.15-2.82,37.27,37.27,0,0,0-8,.28,8.8,8.8,0,0,0-3.59,1.1c-.24.16-.49.4-.81.63a3.21,3.21,0,0,1-1.14.47,9.56,9.56,0,0,1-2.17.15c-.69,0-1.4-.09-2-.1a10.47,10.47,0,0,0-1.94.06,12.47,12.47,0,0,0-1.9.36,12.06,12.06,0,0,0-1.79.74,12.94,12.94,0,0,0-1.67,1,15,15,0,0,0-1.51,1.26,20.67,20.67,0,0,0-2.59,3,41.79,41.79,0,0,0-3.94,7,17.77,17.77,0,0,0-1.31,3.75l-.38,2c-.13.66-.19,1.34-.29,2-.7,5.36-1,10.79-1.25,16.2s-.36,10.85-.44,16.27l-.07,8.14v7.63A3.52,3.52,0,0,1,71.38,229.74Z"/></g></g></svg>