<svg xmlns="http://www.w3.org/2000/svg" viewBox="0 0 153.05 208.98"><defs><style>.cls-1{fill:#fff;}</style></defs><title>資產 9</title><g id="圖層_2" data-name="圖層 2"><g id="圖層_1-2" data-name="圖層 1"><path class="cls-1" d="M39.79,194.22q.84-4.44,5.93-7.1a60.7,60.7,0,0,1,13.15-4.66q8.06-2,18.45-4.24t22.05-5.84a105,105,0,0,0,6.47-17.17,176.73,176.73,0,0,0,4.24-18.76q1.59-9.43,2.44-18.24t1.27-15.37q-13.16,22.89-29.48,38.38a110.39,110.39,0,0,1-15.9,12.4A72.69,72.69,0,0,1,50.5,162.1a49.44,49.44,0,0,1-18.24,2.23,29.41,29.41,0,0,1-16.64-6.79A35.81,35.81,0,0,1,4.06,141.43a68.36,68.36,0,0,1-4-22.27A108,108,0,0,1,2.68,93.3a141.68,141.68,0,0,1,8.8-26.83A148,148,0,0,1,25.69,41.24a116.17,116.17,0,0,1,19-21.2A88.41,88.41,0,0,1,67.78,5.41,66,66,0,0,1,94.28,0a49.58,49.58,0,0,1,18.13,3.18,53,53,0,0,1,24.91,19.61,47,47,0,0,1,6.15,12.41,3.08,3.08,0,0,1-.21,2.54,2.93,2.93,0,0,1-1.8,1.38,3.72,3.72,0,0,1-2.33-.11,2.59,2.59,0,0,1-1.59-1.9,52,52,0,0,0-5.09-10,46.66,46.66,0,0,0-8.8-10,47.85,47.85,0,0,0-12.72-7.73A42.65,42.65,0,0,0,94.28,6.36,59.67,59.67,0,0,0,70,11.45,82.15,82.15,0,0,0,48.69,25.13a109,109,0,0,0-17.6,19.93A147.16,147.16,0,0,0,17.74,68.7a137.2,137.2,0,0,0-8.49,25,105.57,105.57,0,0,0-3,24,62.47,62.47,0,0,0,3.18,20.46,30.55,30.55,0,0,0,10,14.53A25.49,25.49,0,0,0,34,158.18a41.65,41.65,0,0,0,16.11-2.44A70,70,0,0,0,66,147.68a100.44,100.44,0,0,0,13.89-11.13q19.73-18.45,34.78-48.77a2.9,2.9,0,0,1,3.6-1.69,3,3,0,0,1,2.55,3.18q0,8.48-.75,19t-2.33,21.31q-1.59,10.81-4.13,21.21a142,142,0,0,1-5.94,18.87,140.12,140.12,0,0,0,21.1-10,80.37,80.37,0,0,0,18.76-15,2.72,2.72,0,0,1,2.33-1.17,3.29,3.29,0,0,1,2.12,1,3.69,3.69,0,0,1,1.06,2,3,3,0,0,1-.84,2.44,83.47,83.47,0,0,1-22.8,17.92,164,164,0,0,1-25.55,10.92A53.85,53.85,0,0,1,94.7,190.2Q84.32,200.79,73.93,205T55.48,209q-8.07-.32-12.62-4.45A9.85,9.85,0,0,1,39.79,194.22ZM94.7,180.44q-8.48,2.34-17,4.24C72.09,186,67,187.15,62.37,188.29a106.46,106.46,0,0,0-11.45,3.39q-4.56,1.69-5,3.82-.64,3.39,3,5.4t10,1.49A44.66,44.66,0,0,0,73.5,198q8.27-3.81,16.75-12.3c.71-.71,1.45-1.52,2.23-2.44S94,181.43,94.7,180.44Z"/></g></g></svg>