<svg xmlns="http://www.w3.org/2000/svg" viewBox="0 0 94.74 205.93"><defs><style>.cls-1{fill:#fff;}</style></defs><title>資產 8</title><g id="圖層_2" data-name="圖層 2"><g id="圖層_1-2" data-name="圖層 1"><path class="cls-1" d="M5.78,202.93Q2,199.54.8,190.1a144.44,144.44,0,0,1-.64-22.79Q.7,153.95,2.6,137.73t4.24-33Q9.18,88,11.72,71.68t4.45-30Q18.08,28,18.82,18T18.51,4a2.85,2.85,0,0,1,.31-2.54A3.35,3.35,0,0,1,23.06.33a2.93,2.93,0,0,1,1.59,2q1.07,4,.43,14T22.64,40q-1.8,13.68-4.13,30t-4.78,33Q11.3,119.6,9.39,135.61t-2.76,29a150.59,150.59,0,0,0-.1,21.94q.73,8.91,3.71,11.67t9.11.74a62.8,62.8,0,0,0,13.79-6.89q7.62-4.89,16.22-11.67t16.32-13.67q7.74-6.89,14-12.94t9.43-9.22a2.75,2.75,0,0,1,2.34-1.17,3.82,3.82,0,0,1,2.22,1,3,3,0,0,1,1.06,2.12,3.52,3.52,0,0,1-1,2.54q-4,4.25-10.92,10.92T67.59,173.88q-8.37,7.22-17.49,14.21a136,136,0,0,1-17.49,11.55,54.88,54.88,0,0,1-15.48,5.94Q10,207,5.78,202.93Z"/></g></g></svg>