<svg xmlns="http://www.w3.org/2000/svg" viewBox="0 0 420.21 234.42"><defs><style>.cls-1{fill:#231815;}</style></defs><title>資產 46</title><g id="圖層_2" data-name="圖層 2"><g id="圖層_1-2" data-name="圖層 1"><path class="cls-1" d="M356.79,104.28a16.43,16.43,0,0,0,5.32,2.37,10.3,10.3,0,0,0,5.51-.36,17.43,17.43,0,0,0,4.89-2.79,45,45,0,0,0,4.33-3.88c1.41-1.37,2.78-2.8,4.29-4.17a25.53,25.53,0,0,1,5-3.52,18,18,0,0,1,5.8-2,14.52,14.52,0,0,1,6,.33,18.4,18.4,0,0,0-11.05,3,28.16,28.16,0,0,0-4.52,3.55c-1.39,1.34-2.75,2.79-4.17,4.2a41.9,41.9,0,0,1-4.6,4,17.11,17.11,0,0,1-5.57,2.77,10.66,10.66,0,0,1-6.23-.19A13.87,13.87,0,0,1,356.79,104.28Z"/><path class="cls-1" d="M357.51,57a28.48,28.48,0,0,0-7.61-8.15A28.12,28.12,0,0,0,340,44.12c-3.49-.86-7.32-.76-10.21,1.1A9.58,9.58,0,0,0,326.45,49a12.57,12.57,0,0,0-1.36,5c-.21,3.54.88,7.13,2.24,10.56s3.11,6.8,4.75,10.2a68.49,68.49,0,0,1,4.32,10.55c1,3.64,1.53,7.64.31,11.27a19.69,19.69,0,0,0-1.16-11,80.13,80.13,0,0,0-4.78-10.15c-1.77-3.33-3.61-6.64-5.11-10.17S322.92,58,323.13,54a14.17,14.17,0,0,1,1.55-5.83,11.47,11.47,0,0,1,4.07-4.54,11.92,11.92,0,0,1,5.81-1.77,18.38,18.38,0,0,1,5.88.69A27.49,27.49,0,0,1,350.56,48,26.19,26.19,0,0,1,357.51,57Z"/><path class="cls-1" d="M387.5,61.16c-5-2.29-9-6.36-12.25-10.76a67.56,67.56,0,0,1-4.41-7,60.27,60.27,0,0,0-4.22-6.9,43.72,43.72,0,0,0-11.24-11.29,19.3,19.3,0,0,0-7.14-3,11.61,11.61,0,0,0-7.33,1.12,31.26,31.26,0,0,0-3.32,2.13c-1.11.78-2.22,1.58-3.38,2.35A35.22,35.22,0,0,1,330.58,30c-1.27.64-2.57,1.13-3.84,1.62-2.53,1-5,1.95-6.8,3.71a7.58,7.58,0,0,0-1.15,1.44c-.33.52-.55,1.14-.84,1.7a16.31,16.31,0,0,0-.6,1.83c-.19.62-.23,1.27-.36,1.91a25.31,25.31,0,0,0,.45,7.89,39.57,39.57,0,0,0,2.39,7.69,53.15,53.15,0,0,0,8.33,13.92A45.12,45.12,0,0,1,323,65.35a51,51,0,0,1-4.08-7.15,41,41,0,0,1-2.77-7.81,25.87,25.87,0,0,1-.72-8.34c.11-.7.15-1.42.33-2.12s.34-1.4.62-2.07.55-1.33.93-2a9.58,9.58,0,0,1,1.37-1.78c2.11-2.15,4.85-3.22,7.35-4.24,1.27-.52,2.52-1,3.68-1.59a31.25,31.25,0,0,0,3.41-2c1.11-.74,2.21-1.54,3.32-2.33a31.88,31.88,0,0,1,3.55-2.3,13.58,13.58,0,0,1,8.56-1.26,20.64,20.64,0,0,1,7.86,3.3,43.9,43.9,0,0,1,11.48,12,59.53,59.53,0,0,1,4.1,7.18,68,68,0,0,0,4.05,7,41.53,41.53,0,0,0,5,6.35A29.11,29.11,0,0,0,387.5,61.16Z"/><path class="cls-1" d="M280.46,125.16a35,35,0,0,1,8-12.35,45.22,45.22,0,0,1,12.11-8.65,46.28,46.28,0,0,1,14.28-4.4,52.43,52.43,0,0,1,15,.14,54.84,54.84,0,0,1,21,7.74c1,.71,2.1,1.38,3.08,2.11s2,1.44,3,2.13a22.54,22.54,0,0,0,6.33,3.22,11.5,11.5,0,0,0,6.92-.39c2.29-.71,4.59-1.8,7.1-2.11a11.66,11.66,0,0,1,3.73.07,9.3,9.3,0,0,1,3.41,1.44,10.1,10.1,0,0,0-7.06-1c-2.38.44-4.52,1.63-6.86,2.52a15.63,15.63,0,0,1-3.69,1,11.47,11.47,0,0,1-3.87-.22,23,23,0,0,1-6.86-3.19c-2.11-1.35-4.1-2.78-6.13-4.05a56.57,56.57,0,0,0-20.34-7.25,49.15,49.15,0,0,0-28.28,3.68,47.1,47.1,0,0,0-12.1,8A36.57,36.57,0,0,0,280.46,125.16Z"/><path class="cls-1" d="M303.17,42.34a14.46,14.46,0,0,1,.36,4.26,26.37,26.37,0,0,1-.71,4.25,63.47,63.47,0,0,0-2,8.12,11.88,11.88,0,0,0,.11,4,10.11,10.11,0,0,0,1.42,3.62,19.17,19.17,0,0,0,5.8,5.52c2.27,1.59,4.75,3,7,4.88.57.45,1.12,1,1.63,1.47l1.52,1.5c1,1,2,2,3,3.11a31,31,0,0,1,4.9,7.1,17.32,17.32,0,0,1,1.3,4.14,11.34,11.34,0,0,1-.18,4.27,12.85,12.85,0,0,0-.34-4.16,16.26,16.26,0,0,0-1.65-3.8,33.88,33.88,0,0,0-5.18-6.49c-1-1-2-2-3-2.91l-1.55-1.44c-.53-.46-1-.9-1.56-1.32-2.15-1.68-4.6-3.08-7-4.71a20.39,20.39,0,0,1-6.29-6.19,12,12,0,0,1-1.52-4.29,12.26,12.26,0,0,1,.07-4.48c.5-2.94,1.73-5.53,2.65-8.17a25.92,25.92,0,0,0,1.12-4A17.84,17.84,0,0,0,303.17,42.34Z"/><path class="cls-1" d="M323.11,25.45q-8.19-2.16-16.38-4.06a33.52,33.52,0,0,0-8.09-1.18,8.17,8.17,0,0,0-3.64.86,4.57,4.57,0,0,0-2.29,2.52,6,6,0,0,0,0,3.56,22.47,22.47,0,0,0,1.5,3.74c.59,1.24,1.25,2.5,1.86,3.8a29.69,29.69,0,0,1,1.51,4.07,29.15,29.15,0,0,1,.88,4.23,26,26,0,0,1,.16,4.32,19.81,19.81,0,0,1-2.18,8.2,21.39,21.39,0,0,0,1.2-8.21,27.68,27.68,0,0,0-1.55-8.07,36.9,36.9,0,0,0-1.6-3.78c-.62-1.23-1.31-2.45-2-3.72a23.18,23.18,0,0,1-1.69-4.07,8,8,0,0,1,0-4.74,6.56,6.56,0,0,1,3.26-3.58,9.93,9.93,0,0,1,4.51-1,31.28,31.28,0,0,1,8.52,1.57A136.81,136.81,0,0,1,323.11,25.45Z"/><path class="cls-1" d="M357,65.52a11.7,11.7,0,0,1,5.29,5.79,5.07,5.07,0,0,1,.29,1,4.2,4.2,0,0,1,.15,1.08V74c0,.2-.06.4-.09.59a4.12,4.12,0,0,1-.4,1.18,3.94,3.94,0,0,1-2,1.6,6.23,6.23,0,0,1-2.27.31,10.64,10.64,0,0,1-7.23-3.74,9.9,9.9,0,0,1-2.58-7.34,12.19,12.19,0,0,0,3.71,6.25,11.08,11.08,0,0,0,2.92,2,8.36,8.36,0,0,0,3.28.88,4.25,4.25,0,0,0,1.5-.16,2.21,2.21,0,0,0,1-.73,4.4,4.4,0,0,0,.18-3A15.61,15.61,0,0,0,357,65.52Z"/><path class="cls-1" d="M359.68,72.61a12.74,12.74,0,0,0-3,0,3.17,3.17,0,0,0-2,1,3.42,3.42,0,0,0-.72,2.16c-.06.93,0,2-.09,3.07a7.4,7.4,0,0,1-1.47-2.92,4.73,4.73,0,0,1-.08-1.81,3.68,3.68,0,0,1,.85-1.82,3.86,3.86,0,0,1,1.68-1.09,4.4,4.4,0,0,1,1.86-.13A4.82,4.82,0,0,1,359.68,72.61Z"/><path class="cls-1" d="M373.49,75.55A12.08,12.08,0,0,0,371.74,82c-.09,2.25.08,4.51.11,6.83a34.61,34.61,0,0,1-.1,3.51,8.29,8.29,0,0,1-1.1,3.67,5.09,5.09,0,0,1-3.47,2.16,9,9,0,0,1-3.83-.22,18.9,18.9,0,0,1-6.28-3.5,42.77,42.77,0,0,1-5.08-4.8,38.58,38.58,0,0,1-7.32-11.71,56.44,56.44,0,0,0,8.45,10.63,53.07,53.07,0,0,0,5.1,4.38A17.56,17.56,0,0,0,363.89,96c1.93.58,4.23.37,5.2-1.07A6.57,6.57,0,0,0,370,92.1c.13-1.08.23-2.2.28-3.33.11-2.26.15-4.58.48-6.89A11.17,11.17,0,0,1,373.49,75.55Z"/><path class="cls-1" d="M366.33,31.22c5.14,3.63,10.35,7.15,15.31,11.07a77.4,77.4,0,0,1,13.7,13.2,38.64,38.64,0,0,1,5,8.28,25.42,25.42,0,0,1,1.4,4.7,16.3,16.3,0,0,1,.17,4.93c-.38,3.36-2.05,6.15-2.6,9.12a9.9,9.9,0,0,0,2.14,8.62,8.43,8.43,0,0,1-2.61-3.94,11.88,11.88,0,0,1-.5-4.82c.38-3.26,1.85-6.17,2-9.13a16.58,16.58,0,0,0-.33-4.44,23.45,23.45,0,0,0-1.42-4.29,37.93,37.93,0,0,0-4.79-7.81,64.19,64.19,0,0,0-6.19-6.91c-2.21-2.19-4.56-4.26-6.92-6.31C375.91,39.41,371,35.46,366.33,31.22Z"/><path class="cls-1" d="M366.09,30.15a151.25,151.25,0,0,1,26.46,8.56c2.13.94,4.23,2,6.28,3.09a46.43,46.43,0,0,1,6,3.77,17.17,17.17,0,0,1,4.77,5.51,10.68,10.68,0,0,1,.74,1.76,7.79,7.79,0,0,1,.32,1.95,17.25,17.25,0,0,1-.33,3.66,22.28,22.28,0,0,0-.43,3.27,13.89,13.89,0,0,0,.24,3.19,3.62,3.62,0,0,0,.58,1.24l1,1.38a34.54,34.54,0,0,1,2,2.94,7.37,7.37,0,0,1,1.15,3.75,7.07,7.07,0,0,1-1.3,3.7c-1.3,2-2.67,3.81-4,5.69A43.38,43.38,0,0,0,403,95.54a22.44,22.44,0,0,0-1,6.72l.06,1.71c.05.57.16,1.14.23,1.71l.11.86.19.84.39,1.69a24.86,24.86,0,0,1-1.51-6.79,23.58,23.58,0,0,1,.6-7,42.25,42.25,0,0,1,6.22-12.56c1.28-1.93,2.6-3.84,3.83-5.75a5.32,5.32,0,0,0,.94-2.77,5.48,5.48,0,0,0-.95-2.76c-.57-.92-1.25-1.83-1.95-2.75l-1.05-1.4a5.85,5.85,0,0,1-.89-1.87A9.57,9.57,0,0,1,408,63.5l0-.9,0-.89a23.32,23.32,0,0,1,.44-3.6,16.27,16.27,0,0,0,.33-3.24,5.79,5.79,0,0,0-.23-1.46,9.71,9.71,0,0,0-.59-1.44A16.22,16.22,0,0,0,403.64,47,45,45,0,0,0,398,43.32q-3-1.7-6.09-3.2c-4.13-2-8.41-3.72-12.71-5.38S370.5,31.58,366.09,30.15Z"/><path class="cls-1" d="M400.25,109.47a5.92,5.92,0,0,0-.38,3.11,19.41,19.41,0,0,0,.65,3.1,24.19,24.19,0,0,1,1.3,6.38,5.47,5.47,0,0,1-1.13,3.28,4.88,4.88,0,0,1-3,1.89,8,8,0,0,1-3.46-.2,19.32,19.32,0,0,1-3.13-1.1c-4-1.73-7.58-4.18-11.39-5.8a14.26,14.26,0,0,0-2.83-.9,5.64,5.64,0,0,0-1.34-.08,6,6,0,0,0-1.34.29,9.73,9.73,0,0,0-4.41,3.65c-.59.8-1.27,1.76-2,2.58a17.61,17.61,0,0,1-2.48,2.32,11.07,11.07,0,0,1-6.49,2.34,13.56,13.56,0,0,1-11.19-6.85c-2.34-3.79-3.42-8-5.24-11.77a15.73,15.73,0,0,0-3.57-5.09,11.77,11.77,0,0,0-5.63-2.71,11.29,11.29,0,0,1,6,2.29,16.45,16.45,0,0,1,4.1,5.06c2.09,3.8,3.4,7.93,5.69,11.36a15.22,15.22,0,0,0,1.92,2.36,11.51,11.51,0,0,0,2.34,1.84,10.66,10.66,0,0,0,5.58,1.6,9.11,9.11,0,0,0,5.34-2,15.67,15.67,0,0,0,2.17-2.07c.68-.77,1.23-1.57,1.91-2.48a11.7,11.7,0,0,1,5.38-4.29,8.5,8.5,0,0,1,1.79-.37,7.52,7.52,0,0,1,1.85.11,14.5,14.5,0,0,1,3.24,1.07c4,1.84,7.51,4.3,11.28,6.12,1.86.87,3.87,1.66,5.74,1.43a4.15,4.15,0,0,0,3.39-3.94,24.15,24.15,0,0,0-.84-6.21,19.09,19.09,0,0,1-.43-3.2A6,6,0,0,1,400.25,109.47Z"/><path class="cls-1" d="M377.29,52.41a64.5,64.5,0,0,0-11.45-11,61.65,61.65,0,0,0-13.67-7.71A30.66,30.66,0,0,0,337,31.57a26.51,26.51,0,0,0-7.53,1.88,17.47,17.47,0,0,0-6.39,4.5A15.45,15.45,0,0,1,329,32.52,24.43,24.43,0,0,1,336.77,30a28.91,28.91,0,0,1,16.14,2,53.07,53.07,0,0,1,13.85,8.36A48.75,48.75,0,0,1,377.29,52.41Z"/><path class="cls-1" d="M293.87,12.17a19.8,19.8,0,0,0,9,1.74,15.11,15.11,0,0,0,8.23-3.21,29.71,29.71,0,0,0,6.18-6.61c.46-.63.9-1.26,1.48-1.92a4,4,0,0,1,1.22-1,2.64,2.64,0,0,1,1.78-.12,11.24,11.24,0,0,1,2.35,1c.68.36,1.42.79,2,1.08.14,0,.28.14.41.17l.34.08a.7.7,0,0,0,.49-.13,5.35,5.35,0,0,0,1.2-1.51,5.33,5.33,0,0,1,.9-1.07A2.85,2.85,0,0,1,331,0a3.42,3.42,0,0,1,.85,0c.25.06.5.12.75.2a4.27,4.27,0,0,1,1.25.77,21.47,21.47,0,0,1,1.71,1.77c.54.58,1,1.18,1.56,1.77,1,1.19,2,2.39,3,3.61,3.95,4.81,7.74,9.72,12.66,13.6-5.38-3.24-9.72-8-13.85-12.59l-3.12-3.46c-.53-.56-1-1.14-1.58-1.69s-1.08-1.14-1.58-1.55a3.12,3.12,0,0,0-.74-.44c-.12,0-.25,0-.37-.09s-.21,0-.31,0c-.31,0-.67.38-1.08,1A7,7,0,0,1,328.42,5a2.37,2.37,0,0,1-.82.37,3.44,3.44,0,0,1-.9.09,6.49,6.49,0,0,1-.79-.16,5.86,5.86,0,0,1-.67-.28c-.8-.39-1.4-.77-2.1-1.14A10.1,10.1,0,0,0,321.25,3a.7.7,0,0,0-.5,0,2.15,2.15,0,0,0-.59.49c-.46.5-.92,1.15-1.4,1.76a37.77,37.77,0,0,1-3.1,3.62A22.42,22.42,0,0,1,312,12a15.68,15.68,0,0,1-9.12,2.91A18.76,18.76,0,0,1,293.87,12.17Z"/><path class="cls-1" d="M341,6.06c5.38-.93,10.92-1.7,16.49-.81a23.53,23.53,0,0,1,4.11,1l2,.72c.67.25,1.28.62,1.92.93a29.41,29.41,0,0,1,6.78,5c4,3.9,7.19,8.44,10.55,12.7s6.94,8.36,11.57,11.35a31.85,31.85,0,0,1-6.94-4.47,58.93,58.93,0,0,1-5.83-5.89c-1.83-2.05-3.52-4.21-5.29-6.28-.86-1.05-1.75-2.06-2.64-3.08s-1.81-2-2.81-2.88a26.45,26.45,0,0,0-13.7-7.53C352,5.67,346.5,5.89,341,6.06Z"/><path class="cls-1" d="M414.27,80.84a12.4,12.4,0,0,0-.29,5.92,32.84,32.84,0,0,0,1.67,5.72c.71,1.88,1.5,3.73,2.23,5.64a34.68,34.68,0,0,1,1.83,5.94,19.33,19.33,0,0,1,.37,6.37,8.93,8.93,0,0,1-1,3.23,6.86,6.86,0,0,1-2.45,2.51,11.11,11.11,0,0,1-6.46,1.14c-2.09-.14-4.1-.5-6.07-.71a12.16,12.16,0,0,0-5.61.4,2.69,2.69,0,0,0-1.66,1.62,5.47,5.47,0,0,0-.06,2.65c.32,1.91,1,3.82,1.42,5.89a6.88,6.88,0,0,1,0,3.31,3.47,3.47,0,0,1-1,1.51,4.37,4.37,0,0,1-1.5.83,10.57,10.57,0,0,1-6.28-.17,30.77,30.77,0,0,1-5.69-2.33,70.55,70.55,0,0,1-10.19-6.66,80,80,0,0,0,10.46,6.12,29.69,29.69,0,0,0,5.63,2,10,10,0,0,0,5.7,0,2.59,2.59,0,0,0,1.75-1.68,5.82,5.82,0,0,0-.08-2.71c-.41-1.91-1.19-3.8-1.59-5.89a7,7,0,0,1,.06-3.37,4,4,0,0,1,1-1.59,4.79,4.79,0,0,1,1.49-1,13.71,13.71,0,0,1,6.38-.7c2.07.17,4.07.47,6,.56a9.56,9.56,0,0,0,5.34-.94,5.71,5.71,0,0,0,2.53-4.34,17.57,17.57,0,0,0-.3-5.71c-.75-3.84-2.41-7.54-3.55-11.49a25.62,25.62,0,0,1-1.16-6.09A11.39,11.39,0,0,1,414.27,80.84Z"/><path class="cls-1" d="M353.05,57a12.17,12.17,0,0,0-7.13-.19,6.94,6.94,0,0,0-4.65,4.35,9.86,9.86,0,0,0-.56,3.35,14.45,14.45,0,0,0,.37,3.51,17.75,17.75,0,0,0,3.08,6.6,12.56,12.56,0,0,1-4.58-6.17,12.12,12.12,0,0,1-.19-8,8,8,0,0,1,2.4-3.46,8.36,8.36,0,0,1,3.75-1.73A9.88,9.88,0,0,1,353.05,57Z"/><path class="cls-1" d="M367.5,71.76a22.9,22.9,0,0,1,1.71,8.17,10,10,0,0,1-.88,4.35,6.11,6.11,0,0,1-3.57,3.1,11.79,11.79,0,0,1-8.61-1.18,13.9,13.9,0,0,1-6-5.78,19.27,19.27,0,0,0,6.66,4.36,15.66,15.66,0,0,0,3.74.94,8.19,8.19,0,0,0,3.61-.24,4.28,4.28,0,0,0,2.52-2.07,9.63,9.63,0,0,0,1-3.57A46.7,46.7,0,0,0,367.5,71.76Z"/><path class="cls-1" d="M382.46,71.89a12.87,12.87,0,0,0-3.68,9.59,17,17,0,0,0,.88,5.12A25.2,25.2,0,0,0,382,91.53a12.42,12.42,0,0,1-5.24-10,11.69,11.69,0,0,1,1.4-5.76A8,8,0,0,1,382.46,71.89Z"/><path class="cls-1" d="M327.25,98.53c-22.35,19.69-44.9,39.22-69.11,56.69a304.86,304.86,0,0,1-38,23.6c-1.63.91-3.34,1.66-5,2.5s-3.34,1.68-5.07,2.41c-3.41,1.52-6.81,3.08-10.31,4.41a152.91,152.91,0,0,1-21.33,7c-14.54,3.64-29.46,5.35-44.34,6.34-7.44.5-14.91.75-22.34,1l-22.34.68C59.57,204,29.79,204.33,0,204.76l44.66-1.55c14.89-.5,29.78-.86,44.65-1.48l22.32-.93c7.45-.27,14.88-.56,22.29-1.09,14.81-1.06,29.62-2.83,44-6.49A153.75,153.75,0,0,0,199,186.38c3.47-1.31,6.85-2.85,10.24-4.34,1.71-.71,3.36-1.58,5-2.37s3.37-1.57,5-2.46a328,328,0,0,0,38-23.23c12.17-8.54,23.93-17.68,35.52-27S315.81,108.07,327.25,98.53Z"/><path class="cls-1" d="M282.05,28.41a26.48,26.48,0,0,1,4.07,13.16,42.14,42.14,0,0,1-1.8,13.84c-2.65,9-7.33,17-9.62,25.8a51.35,51.35,0,0,0,.47,26.78,57.06,57.06,0,0,0,13.33,23.65,51.83,51.83,0,0,1-14.82-23.2,52.37,52.37,0,0,1-2.41-13.78,49,49,0,0,1,1.5-14C275.21,71.6,280,63.57,282.84,55a43.69,43.69,0,0,0,2.31-13.35A27.43,27.43,0,0,0,282.05,28.41Z"/><path class="cls-1" d="M398.1,144.83a41.59,41.59,0,0,0-8.17-7.46,27.45,27.45,0,0,0-4.87-2.53,21.74,21.74,0,0,0-5.3-1.3,27.26,27.26,0,0,0-10.8,1,64.14,64.14,0,0,0-10.22,4.1c-3.34,1.59-6.6,3.36-10,4.89A56.39,56.39,0,0,1,337.94,147a59.69,59.69,0,0,1-22.49.55,45.29,45.29,0,0,1-20.63-9,39.46,39.46,0,0,1-7.79-8.27A34.53,34.53,0,0,1,282.19,120c-2.08-7.33-1.86-15-.49-22.38a93.06,93.06,0,0,1,7.11-21.13,99.89,99.89,0,0,0-6.12,21.31c-1.17,7.25-1.17,14.79,1,21.75a35.84,35.84,0,0,0,4.76,9.72,37.33,37.33,0,0,0,7.5,7.82,40.72,40.72,0,0,0,9.37,5.48,50.57,50.57,0,0,0,10.46,3,57.82,57.82,0,0,0,21.78-.36A54.36,54.36,0,0,0,348,142c3.37-1.43,6.7-3.12,10.09-4.66a65.43,65.43,0,0,1,10.52-3.93,27.18,27.18,0,0,1,11.24-.79,22.27,22.27,0,0,1,5.44,1.55,28,28,0,0,1,4.89,2.77A39,39,0,0,1,398.1,144.83Z"/><path class="cls-1" d="M253.27,52.77a33.77,33.77,0,0,1,12.12,19.12,35.26,35.26,0,0,1,.17,11.59c-.43,3.79-1,7.49-.69,11.16a38.16,38.16,0,0,0,2.38,10.8,52.91,52.91,0,0,0,5,10,58.87,58.87,0,0,0,6.9,8.86,52.16,52.16,0,0,0,8.58,7.37,49.09,49.09,0,0,1-16.78-15.37,44.16,44.16,0,0,1-8-21.53,57,57,0,0,1,.82-11.52,35.79,35.79,0,0,0,.17-11.07A36.41,36.41,0,0,0,253.27,52.77Z"/><path class="cls-1" d="M183.09,183.56a36.14,36.14,0,0,1,16.72-2,44.56,44.56,0,0,1,16.05,5.53A86.07,86.07,0,0,1,229.7,197c4.34,3.66,8.32,7.7,12.46,11.5a74.79,74.79,0,0,0,13.23,10.19,44.91,44.91,0,0,0,15.77,4.89c2.76.41,5.56.7,8.36,1a57.66,57.66,0,0,1,8.49,1.35,52,52,0,0,1,15.73,6.88l-1.05,1.67A8.2,8.2,0,0,1,300,231a24.42,24.42,0,0,1-1.39-3.79c-.73-2.53-1.19-5.14-2-7.43a57.92,57.92,0,0,0-7.41-13.31,60,60,0,0,0-23.48-19.12A48.83,48.83,0,0,0,251,183.48a76.11,76.11,0,0,0-15.39,0c-10.28.92-20.38,3.41-30.55,5.33,10.08-2.34,20.11-5,30.45-6.26a73.36,73.36,0,0,1,15.61-.32A50.19,50.19,0,0,1,266.3,186a61.45,61.45,0,0,1,32.06,33.13c.92,2.61,1.34,5.12,2.07,7.56a24.11,24.11,0,0,0,1.29,3.49,6.43,6.43,0,0,0,2,2.6l-1.05,1.67a52.29,52.29,0,0,0-15.15-6.67,55.93,55.93,0,0,0-8.22-1.35c-2.8-.31-5.62-.62-8.44-1.05a46.64,46.64,0,0,1-16.36-5.19,70.83,70.83,0,0,1-13.44-10.56c-4.11-3.9-8-8-12.23-11.67a84.78,84.78,0,0,0-13.49-10,44.21,44.21,0,0,0-15.62-5.86A37.21,37.21,0,0,0,183.09,183.56Z"/><path class="cls-1" d="M149.17,193.52a43.41,43.41,0,0,0,11.16-2,37,37,0,0,0,10-5.1,38.92,38.92,0,0,0,13.4-17.61,48.09,48.09,0,0,0,3.16-22A48.82,48.82,0,0,0,180,125.72l1.6-1a5.56,5.56,0,0,1,.71,2.37,8.46,8.46,0,0,1-.24,2.27,17.16,17.16,0,0,1-1.59,4,47,47,0,0,1-4.68,6.82,110.21,110.21,0,0,1-11.29,11.77,25.32,25.32,0,0,0-5.19,5.94,9.69,9.69,0,0,0-1.24,3.61,12.08,12.08,0,0,0,.26,3.87c.55,2.59,1.72,5.06,2.48,7.68a11,11,0,0,1-.29,8,11,11,0,0,0-.15-7.85c-.85-2.54-2.14-4.94-2.84-7.63a12.86,12.86,0,0,1-.47-4.16,11,11,0,0,1,1.26-4.05,26.23,26.23,0,0,1,5.25-6.37,129.67,129.67,0,0,0,10.87-11.88,44.34,44.34,0,0,0,4.43-6.58,14.53,14.53,0,0,0,1.39-3.55,6.17,6.17,0,0,0,.18-1.74,3.57,3.57,0,0,0-.45-1.48l1.6-1a48.61,48.61,0,0,1,4.93,10.53,49.28,49.28,0,0,1,2.23,11.4,50,50,0,0,1-3.49,22.78A40.17,40.17,0,0,1,171,187.29,38,38,0,0,1,149.17,193.52Z"/><path class="cls-1" d="M181.71,128a49.93,49.93,0,0,1,3.45,11.59,42.32,42.32,0,0,1,.36,12.21,30.12,30.12,0,0,1-3.87,11.65,22,22,0,0,1-8.7,8.41,27.84,27.84,0,0,0,7.33-9.16,34.34,34.34,0,0,0,3.25-11.15,53,53,0,0,0,.09-11.75A107.3,107.3,0,0,0,181.71,128Z"/><path class="cls-1" d="M300.91,231.25a78.29,78.29,0,0,0-12.46-17.49A86.26,86.26,0,0,0,272,200.09a77.56,77.56,0,0,0-19.32-9,60.06,60.06,0,0,0-21.23-2.62,51,51,0,0,1,21.65,1.12,69.46,69.46,0,0,1,20,8.85,76.19,76.19,0,0,1,16.5,14.31A63.4,63.4,0,0,1,300.91,231.25Z"/></g></g></svg>