<svg xmlns="http://www.w3.org/2000/svg" viewBox="0 0 3065.28 3387.07"><title>資產 16</title><g id="圖層_2" data-name="圖層 2"><g id="圖層_1-2" data-name="圖層 1"><polygon points="2543.23 236.12 2677.37 206.25 2543.23 176.38 2616.96 60.41 2500.99 134.13 2471.12 0 2441.25 134.13 2325.28 60.41 2399 176.38 2264.87 206.25 2399 236.12 2325.28 352.09 2441.25 278.37 2471.12 412.5 2500.99 278.37 2616.96 352.09 2543.23 236.12"/><polygon points="237.6 1288.12 352.09 1262.63 237.6 1237.13 300.53 1138.14 201.54 1201.07 176.04 1086.58 150.55 1201.07 51.56 1138.14 114.49 1237.13 0 1262.63 114.49 1288.12 51.56 1387.11 150.55 1324.18 176.04 1438.67 201.54 1324.18 300.53 1387.11 237.6 1288.12"/><polygon points="910.31 3314.15 956.67 3387.07 883.75 3340.71 810.83 3387.07 857.18 3314.15 810.83 3241.23 883.75 3287.59 956.67 3241.23 910.31 3314.15"/><polygon points="1618.85 1898.29 1668.64 1887.2 1618.85 1876.11 1646.22 1833.06 1603.17 1860.43 1592.08 1810.63 1580.99 1860.43 1537.94 1833.06 1565.31 1876.11 1515.52 1887.2 1565.31 1898.29 1537.94 1941.34 1580.99 1913.97 1592.08 1963.76 1603.17 1913.97 1646.22 1941.34 1618.85 1898.29"/><polygon points="3018.92 2964.14 3065.28 3037.06 2992.36 2990.71 2919.44 3037.06 2965.8 2964.14 2919.44 2891.22 2992.36 2937.58 3065.28 2891.22 3018.92 2964.14"/></g></g></svg>