<svg xmlns="http://www.w3.org/2000/svg" viewBox="0 0 1683.09 1289.68"><title>資產 21</title><g id="圖層_2" data-name="圖層 2"><g id="圖層_1-2" data-name="圖層 1"><polygon points="1548.96 236.12 1683.09 206.25 1548.96 176.38 1622.68 60.41 1506.71 134.13 1476.84 0 1446.97 134.13 1331 60.41 1404.73 176.38 1270.59 206.25 1404.73 236.12 1331 352.09 1446.97 278.37 1476.84 412.5 1506.71 278.37 1622.68 352.09 1548.96 236.12"/><polygon points="103.33 1224.2 153.13 1213.12 103.33 1202.03 130.7 1158.98 87.65 1186.35 76.56 1136.55 65.47 1186.35 22.43 1158.98 49.79 1202.03 0 1213.12 49.79 1224.2 22.43 1267.26 65.47 1239.89 76.56 1289.68 87.65 1239.89 130.7 1267.26 103.33 1224.2"/></g></g></svg>