<svg xmlns="http://www.w3.org/2000/svg" viewBox="0 0 113.96 92.9"><defs><style>.cls-1{fill:#e4d5d5;}.cls-2{fill:#fbf7f2;}</style></defs><title>資產 6</title><g id="圖層_2" data-name="圖層 2"><g id="圖層_1-2" data-name="圖層 1"><path class="cls-1" d="M94.45,11.65a.82.82,0,0,1-.1.37h0a1.14,1.14,0,0,1-.29.34l0,0a2.33,2.33,0,0,1-.45.28l-.08,0a3,3,0,0,1-.6.22L68.52,19.45l.1,26.32L93,39.23a4.2,4.2,0,0,0,.6-.21l.08,0,.06,0A2.26,2.26,0,0,0,94,38.8l.13-.1h0v0l.13-.12.09-.11.06-.09h0l0-.12,0-.11a.49.49,0,0,0,0-.12h0Z"/><path class="cls-1" d="M12.16,32.91.37,22.68a1.23,1.23,0,0,1-.28-.34A.73.73,0,0,1,0,22H0L.1,48.31A.94.94,0,0,0,.47,49L12.26,59.22Z"/><path class="cls-1" d="M40.9,26.85,16.25,33.46a4.64,4.64,0,0,1-.51.11l-.13,0-.5,0H14.5l-.52,0h0l-.51-.1h0L13,33.36l-.08,0-.28-.13-.13-.06a2.24,2.24,0,0,1-.34-.23l.1,26.31a2.13,2.13,0,0,0,.33.23l.14.06a1.51,1.51,0,0,0,.22.11l.05,0,.09,0,.16.06.26.07h0l.24.05.23,0h.24l.23,0h.76l.31,0,.17,0,.13,0h.1l.41-.1L41,53.17Z"/><path class="cls-1" d="M113.86,59.13a.75.75,0,0,1-.1.38h0a1.46,1.46,0,0,1-.29.33l0,0a3.16,3.16,0,0,1-.45.28l-.08,0a3.1,3.1,0,0,1-.61.22l-22.37,6a4.59,4.59,0,0,1-.51.1l-.13,0a4.07,4.07,0,0,1-.49,0H88.2a4.38,4.38,0,0,1-.52,0h0a4.17,4.17,0,0,1-.51-.09h0l-.43-.13-.08,0-.28-.13-.13-.07a2.1,2.1,0,0,1-.33-.22l-45-39L41,53.17l45,39a2.75,2.75,0,0,0,.33.23l.14.06a1.23,1.23,0,0,0,.23.11l0,0,.08,0,.17.06.25.07h0l.24.05.23,0h.09l.14,0,.24,0h.76l.31,0,.17,0,.13,0,.09,0a2.71,2.71,0,0,0,.41-.09l22.38-6a3.78,3.78,0,0,0,.6-.22l.09,0,.05,0,.27-.16.12-.1h0l0,0,.12-.12a.52.52,0,0,0,.1-.11.41.41,0,0,0,0-.09h0l0-.12,0-.11s0-.08,0-.12h0Z"/><path class="cls-2" d="M78.21.18a5,5,0,0,1,4.07.56L94.07,11c.8.69.28,1.57-1.17,2L68.52,19.45l45,39c.8.7.27,1.57-1.18,2l-22.37,6a5,5,0,0,1-4.07-.55l-45-39L16.25,33.46a5.08,5.08,0,0,1-4.09-.55L.37,22.68c-.8-.69-.27-1.57,1.19-2Z"/></g></g></svg>