<svg xmlns="http://www.w3.org/2000/svg" viewBox="0 0 198.19 205.89"><defs><style>.cls-1{fill:#554f47;}</style></defs><title>資產 45</title><g id="圖層_2" data-name="圖層 2"><g id="圖層_1-2" data-name="圖層 1"><path class="cls-1" d="M11,166.35q-1.71-10.82-3.18-24.06T5.19,114.51Q4,100,3.18,84.93T1.59,55.35Q.84,40.83.53,27.47T0,3.3A3,3,0,0,1,1,1,3.72,3.72,0,0,1,3.18,0,2.9,2.9,0,0,1,5.41.75a3,3,0,0,1,1,2.34q.21,9.54.64,24.49T8.27,60.12q.84,17.61,2,36.47t3,36.37q1.8,17.49,4,32.12a153.2,153.2,0,0,0,5.2,23.75q2.11,6.78,3.92,9.12t5.19.42q4-2.34,9-8.8A147.32,147.32,0,0,0,50.89,174q5.3-9.12,10.81-20.25t10.6-22.9Q77.4,119.07,82,107.3t8-22.16c.14-1,.46-3.14,1-6.46s1.09-6.82,1.8-10.5,1.45-7.1,2.23-10.28,1.51-5.12,2.22-5.83a3.63,3.63,0,0,1,3.82-.75q2.11.75,2.33,5.62a54.14,54.14,0,0,1-1.91,12q-1.91,7.74-5.09,17.5-.84,5.3-1.69,13.14t-1.7,16.75q-.84,8.91-1.27,18.45t-.32,18.34q.1,8.81.85,16.33A50.34,50.34,0,0,0,94.78,182q3.39,9.56,8.06,10.92t9.86-2.86q5.19-4.24,10.81-12.83a178.32,178.32,0,0,0,10.81-19.19q5.2-10.59,10-21.84t8.59-20.78q11-28.18,18.55-48.13t12.09-32.65q4.54-12.72,8.37-24.6a2.63,2.63,0,0,1,1.7-1.91,3.83,3.83,0,0,1,2.33-.1,3.33,3.33,0,0,1,1.8,1.38A2.85,2.85,0,0,1,198,12q-4,11.88-8.59,24.6T177.37,69.45q-7.53,20.14-18.56,48.35-16.11,40.71-29,61.06-7.22,11.46-13.47,16.54t-11.45,5.2a12.27,12.27,0,0,1-9.33-4.24,34.09,34.09,0,0,1-6.89-12,63.12,63.12,0,0,1-3-14.95q-.84-9-.85-19.09t.64-20q.63-10,1.27-18-1.91,5.1-5.3,13.15t-7.53,17.39q-4.12,9.33-9,19T54.81,179.92a144.62,144.62,0,0,1-10.28,14.85,38.06,38.06,0,0,1-9.76,9.11c-4,2.41-7.28,2.65-10,.75s-4.95-4.92-6.79-9a65.83,65.83,0,0,1-4.34-14.2C12.62,176,11.73,171,11,166.35Z"/></g></g></svg>